<mxfile host="app.diagrams.net" agent="Mozilla/5.0 (X11; Linux x86_64) AppleWebKit/537.36 (KHTML, like Gecko) Chrome/130.0.0.0 Safari/537.36" version="28.2.3">
  <diagram name="Page-1" id="KUWia0mi56MD-sfbcHVG">
    <mxGraphModel dx="6627" dy="190" grid="1" gridSize="10" guides="1" tooltips="1" connect="1" arrows="1" fold="1" page="1" pageScale="1" pageWidth="850" pageHeight="1100" math="0" shadow="0">
      <root>
        <mxCell id="0" />
        <mxCell id="1" parent="0" />
        <mxCell id="KkSQwusm3BORoXdPYHce-2" value="HillClimmer" style="swimlane;fontStyle=1;align=center;verticalAlign=top;childLayout=stackLayout;horizontal=1;startSize=26;horizontalStack=0;resizeParent=1;resizeParentMax=0;resizeLast=0;collapsible=1;marginBottom=0;whiteSpace=wrap;html=1;" parent="1" vertex="1">
          <mxGeometry x="-3030" y="2400" width="370" height="1230" as="geometry" />
        </mxCell>
        <mxCell id="KkSQwusm3BORoXdPYHce-3" value="- currentCustomer : Customer&lt;br&gt;- currentManager : Manager&lt;br&gt;- customerDAO : CustomerDAO&lt;div&gt;- durationManager : DurationManager&lt;br&gt;- isManagerMode: boolean&lt;br&gt;- managerDAO : ManagerDAO&lt;br&gt;- rentalManager : RentalManager&lt;br&gt;- scanner : Scanner&lt;br&gt;- transactionManager : TransactionManager&lt;br&gt;- vehicleManager : VehicleManager&lt;br&gt;&lt;br&gt;&lt;div&gt;&lt;br&gt;&lt;/div&gt;&lt;/div&gt;" style="text;strokeColor=none;fillColor=none;align=left;verticalAlign=top;spacingLeft=4;spacingRight=4;overflow=hidden;rotatable=0;points=[[0,0.5],[1,0.5]];portConstraint=eastwest;whiteSpace=wrap;html=1;" parent="KkSQwusm3BORoXdPYHce-2" vertex="1">
          <mxGeometry y="26" width="370" height="154" as="geometry" />
        </mxCell>
        <mxCell id="KkSQwusm3BORoXdPYHce-4" value="" style="line;strokeWidth=1;fillColor=none;align=left;verticalAlign=middle;spacingTop=-1;spacingLeft=3;spacingRight=3;rotatable=0;labelPosition=right;points=[];portConstraint=eastwest;strokeColor=inherit;" parent="KkSQwusm3BORoXdPYHce-2" vertex="1">
          <mxGeometry y="180" width="370" height="8" as="geometry" />
        </mxCell>
        <mxCell id="KkSQwusm3BORoXdPYHce-5" value="+ HiClimmer() : constructor&lt;br&gt;+ main(String[] args)&lt;br&gt;- addCustomer()&lt;br&gt;- addNewRental()&lt;br&gt;- addNewVehicle()&lt;br&gt;- changeManagerPassword()&lt;br&gt;- cleanupResources()&lt;br&gt;- clearScreen()&lt;br&gt;- customerLogin()&lt;br&gt;- customerRegistration()&lt;br&gt;- displayVehicleStatistics()&lt;br&gt;- enterAlternateScreen()&lt;br&gt;- exitAlternateScreen()&lt;br&gt;- generateVehicleId(int vehicleType) : String&lt;br&gt;- getAllowedVehicleTypes(String licenseType) : String&lt;br&gt;- getConflictingDates(int vehicleId, LocalDate startDate, LocalDate endDate) : boolean&lt;br&gt;- loadVehiclesFromCSV()&lt;br&gt;- makePayment()&lt;br&gt;- managerLogin()&lt;br&gt;- newRental()&lt;br&gt;- pauseForUserConfirmation()&lt;br&gt;- processCashPayment()&lt;br&gt;- processPaymentWithInterface(double amount, int paymentType) : PaymentResult&lt;br&gt;- processRentalPayment(double amount, int rentalID)&lt;br&gt;- processVehicleReturn()&lt;br&gt;+ readCustomerID(String prompt) : String&lt;br&gt;+ readDate(String prompt, boolean allowPastDates) : LocalDate&lt;br&gt;+ readDouble(String prompt, double min, double max) : double&lt;br&gt;+ readEmail(String prompt) : String&lt;br&gt;+ readIC(String prompt) : String&lt;br&gt;+ readInt(String prompt, int min,&amp;nbsp; int max) : int&lt;br&gt;+ readLicenseType(String prompt) : String&lt;br&gt;+ readManagerId(String prompt) : String&lt;br&gt;+ readPassword(String prompt) : String&lt;br&gt;~ readPassword(String prompt, int minLength) : String&lt;br&gt;~ readPasswordWithConfirmation(String prompt, int minLength) : String&lt;br&gt;+ readPhone(String prompt) : String&lt;br&gt;+ readString(String prompt) : String&lt;br&gt;~ readString(String prompt, int minLength, int maxLength) : String&lt;br&gt;- removeCustomer()&lt;br&gt;- removeRental()&lt;br&gt;- removeVehicle()&lt;br&gt;+&amp;nbsp; resetScannerForTesting()&lt;br&gt;- returnVehicle()&lt;br&gt;- runProductionMode()&lt;br&gt;- safetyCheck()&lt;br&gt;- searchRentalByReference()&lt;br&gt;- showAbout()&lt;br&gt;- showAccountManagerMenu()&lt;br&gt;- showCustomerMenu()&lt;br&gt;- showFinancialOperationsMenu()&lt;br&gt;- showFleetManagementMenu()&lt;br&gt;- showMainMenu()&lt;br&gt;- showManagerMenu()&lt;br&gt;- showRentalManagementMenu()&lt;br&gt;- showSystemReports()&lt;br&gt;- transitionToScreen()&lt;br&gt;- updateVehicleAvailability(String vehicleId)&lt;br&gt;- updateVehicleCondition(String vehicleId)&lt;br&gt;- updateVehicleDetails()&lt;br&gt;- updateVehiclePrice(String vehicleId)&lt;br&gt;- validateCustomerDetails(Customer customer, boolean isUpdate, Customer originalCustomer)&lt;br&gt;- viewAllCustomers()&lt;br&gt;- viewAllVehicles()&lt;br&gt;- viewPaymentHistory()&lt;br&gt;- viewProfile()&lt;br&gt;- viewRentals()" style="text;strokeColor=none;fillColor=none;align=left;verticalAlign=top;spacingLeft=4;spacingRight=4;overflow=hidden;rotatable=0;points=[[0,0.5],[1,0.5]];portConstraint=eastwest;whiteSpace=wrap;html=1;" parent="KkSQwusm3BORoXdPYHce-2" vertex="1">
          <mxGeometry y="188" width="370" height="1042" as="geometry" />
        </mxCell>
        <mxCell id="1-GLfwU_gdSAN0xT_Nue-1" value="Customer" style="swimlane;fontStyle=1;align=center;verticalAlign=top;childLayout=stackLayout;horizontal=1;startSize=26;horizontalStack=0;resizeParent=1;resizeParentMax=0;resizeLast=0;collapsible=1;marginBottom=0;whiteSpace=wrap;html=1;" parent="1" vertex="1">
          <mxGeometry x="-650" y="1610" width="400" height="700" as="geometry" />
        </mxCell>
        <mxCell id="1-GLfwU_gdSAN0xT_Nue-2" value="- HEX_PATTERN : Pattern&lt;br&gt;- IC_PATTERN : Pattern&lt;br&gt;- PHONE_INPUT_PATTERN : Pattern&lt;br&gt;- PHONE_PATTERN : Pattern&lt;br&gt;- SYMBOL_PATTERN : Pattern&lt;br&gt;- age : int&lt;br&gt;- customerID : String&lt;br&gt;- email : String&lt;br&gt;- hashedPassword : String&lt;br&gt;- icNumber: String&lt;br&gt;- isActive : boolean&lt;br&gt;- licenseExpiryDate : LocalDate&lt;br&gt;- licenseType : String&lt;br&gt;- name : String&lt;br&gt;- outstandingBalance : double&lt;br&gt;- password : String&lt;br&gt;- phoneNo : String&lt;br&gt;- registrationDate : String&lt;br&gt;- safetyCheckDate : Date&lt;br&gt;- safetyCheckID : String&lt;br&gt;- safetyCheckPassed : boolean&lt;br&gt;- salt : String" style="text;strokeColor=none;fillColor=none;align=left;verticalAlign=top;spacingLeft=4;spacingRight=4;overflow=hidden;rotatable=0;points=[[0,0.5],[1,0.5]];portConstraint=eastwest;whiteSpace=wrap;html=1;" parent="1-GLfwU_gdSAN0xT_Nue-1" vertex="1">
          <mxGeometry y="26" width="400" height="334" as="geometry" />
        </mxCell>
        <mxCell id="1-GLfwU_gdSAN0xT_Nue-3" value="" style="line;strokeWidth=1;fillColor=none;align=left;verticalAlign=middle;spacingTop=-1;spacingLeft=3;spacingRight=3;rotatable=0;labelPosition=right;points=[];portConstraint=eastwest;strokeColor=inherit;" parent="1-GLfwU_gdSAN0xT_Nue-1" vertex="1">
          <mxGeometry y="360" width="400" height="8" as="geometry" />
        </mxCell>
        <mxCell id="1-GLfwU_gdSAN0xT_Nue-4" value="+ Customer(String customerID, String name, String icNumber, String phoneNo, String email, String licenseType, LocalDate licenseExpiryDate, int age, String password)&lt;br&gt;+ getters&lt;br&gt;+ setters&lt;br&gt;+ authenticate(String inputPassword) : boolean&lt;br&gt;+ authenticatePassword(String inputPassword) : boolean&lt;br&gt;+ clearPlainPassword()&lt;br&gt;- generateSalt() : String&lt;br&gt;- hashPassword(String password, String salt) : String&lt;br&gt;+ isActive() : boolean&lt;br&gt;+ isLicenseValid() : boolean&lt;br&gt;+ isSafetyCheckPassed() : boolean&lt;br&gt;+ isValidIC(String icNumber) : boolean&lt;div&gt;+ isValidLicenseType(String licenseType) : boolean&lt;br&gt;+ isValidMalaysianPhone(String phoneInput) : boolean&lt;br&gt;+ isValidMalaysianPhoneInput(String phoneInput) : String&lt;br&gt;+ isValidPassword(String password) : boolean&lt;br&gt;+ normalizeMalaysianPhone(String phoneInput) : String&lt;br&gt;+ setActive(boolean active)&lt;br&gt;+ toString() : String Object&lt;br&gt;+ updatePassword(String newPassword)&lt;br&gt;&lt;br&gt;&lt;br&gt;&lt;/div&gt;" style="text;strokeColor=none;fillColor=none;align=left;verticalAlign=top;spacingLeft=4;spacingRight=4;overflow=hidden;rotatable=0;points=[[0,0.5],[1,0.5]];portConstraint=eastwest;whiteSpace=wrap;html=1;" parent="1-GLfwU_gdSAN0xT_Nue-1" vertex="1">
          <mxGeometry y="368" width="400" height="332" as="geometry" />
        </mxCell>
        <mxCell id="1-GLfwU_gdSAN0xT_Nue-5" value="SafetyCheck" style="swimlane;fontStyle=1;align=center;verticalAlign=top;childLayout=stackLayout;horizontal=1;startSize=26;horizontalStack=0;resizeParent=1;resizeParentMax=0;resizeLast=0;collapsible=1;marginBottom=0;whiteSpace=wrap;html=1;" parent="1" vertex="1">
          <mxGeometry x="-3420" y="4020" width="380" height="320" as="geometry" />
        </mxCell>
        <mxCell id="1-GLfwU_gdSAN0xT_Nue-6" value="- PENALTY_QUESTIONS : String[][]&lt;br&gt;- SANITY_QUESTIONS : String[][]&lt;br&gt;- TRAFFIC_QUESTIONS : String[][]&lt;br&gt;- USAGE_QUESTIONS : String[][]&lt;br&gt;- checkID : String&lt;br&gt;- completedDate : Date&lt;br&gt;- customerID : String&lt;br&gt;- passed : boolean&lt;br&gt;- score : int&lt;br&gt;- totalQuestions : int&lt;br&gt;- wrongAnswers : List&amp;lt;String&amp;gt;&lt;div&gt;&lt;br/&gt;&lt;/div&gt;" style="text;strokeColor=none;fillColor=none;align=left;verticalAlign=top;spacingLeft=4;spacingRight=4;overflow=hidden;rotatable=0;points=[[0,0.5],[1,0.5]];portConstraint=eastwest;whiteSpace=wrap;html=1;" parent="1-GLfwU_gdSAN0xT_Nue-5" vertex="1">
          <mxGeometry y="26" width="380" height="174" as="geometry" />
        </mxCell>
        <mxCell id="1-GLfwU_gdSAN0xT_Nue-7" value="" style="line;strokeWidth=1;fillColor=none;align=left;verticalAlign=middle;spacingTop=-1;spacingLeft=3;spacingRight=3;rotatable=0;labelPosition=right;points=[];portConstraint=eastwest;strokeColor=inherit;" parent="1-GLfwU_gdSAN0xT_Nue-5" vertex="1">
          <mxGeometry y="200" width="380" height="8" as="geometry" />
        </mxCell>
        <mxCell id="1-GLfwU_gdSAN0xT_Nue-8" value="+ SafetyCheck(String customerID)&lt;br&gt;+ conductSafetyCheck() : boolean&lt;br&gt;- displayResults()&lt;br&gt;+ getters()&lt;br&gt;+ setters()&lt;br&gt;+ isPassed() : boolean&lt;br&gt;+ validateSafetyCheckStatus(boolean safetyCheckPassed) : boolean&lt;br&gt;&lt;br&gt;&lt;div&gt;&lt;br&gt;&lt;/div&gt;" style="text;strokeColor=none;fillColor=none;align=left;verticalAlign=top;spacingLeft=4;spacingRight=4;overflow=hidden;rotatable=0;points=[[0,0.5],[1,0.5]];portConstraint=eastwest;whiteSpace=wrap;html=1;" parent="1-GLfwU_gdSAN0xT_Nue-5" vertex="1">
          <mxGeometry y="208" width="380" height="112" as="geometry" />
        </mxCell>
        <mxCell id="1-GLfwU_gdSAN0xT_Nue-9" value="Questions" style="swimlane;fontStyle=1;align=center;verticalAlign=top;childLayout=stackLayout;horizontal=1;startSize=26;horizontalStack=0;resizeParent=1;resizeParentMax=0;resizeLast=0;collapsible=1;marginBottom=0;whiteSpace=wrap;html=1;" parent="1" vertex="1">
          <mxGeometry x="-3420" y="4440" width="350" height="140" as="geometry" />
        </mxCell>
        <mxCell id="1-GLfwU_gdSAN0xT_Nue-10" value="+ correctAnswer : String&lt;br&gt;+ options : String[]&lt;br&gt;+ questionText : String&lt;br&gt;+ sectionName : String&lt;br&gt;&lt;div&gt;&lt;br&gt;&lt;/div&gt;" style="text;strokeColor=none;fillColor=none;align=left;verticalAlign=top;spacingLeft=4;spacingRight=4;overflow=hidden;rotatable=0;points=[[0,0.5],[1,0.5]];portConstraint=eastwest;whiteSpace=wrap;html=1;" parent="1-GLfwU_gdSAN0xT_Nue-9" vertex="1">
          <mxGeometry y="26" width="350" height="64" as="geometry" />
        </mxCell>
        <mxCell id="1-GLfwU_gdSAN0xT_Nue-11" value="" style="line;strokeWidth=1;fillColor=none;align=left;verticalAlign=middle;spacingTop=-1;spacingLeft=3;spacingRight=3;rotatable=0;labelPosition=right;points=[];portConstraint=eastwest;strokeColor=inherit;" parent="1-GLfwU_gdSAN0xT_Nue-9" vertex="1">
          <mxGeometry y="90" width="350" height="8" as="geometry" />
        </mxCell>
        <mxCell id="1-GLfwU_gdSAN0xT_Nue-12" value="+ Question(String questionText, String[] options, String correctAnswer, String sectionName)" style="text;strokeColor=none;fillColor=none;align=left;verticalAlign=top;spacingLeft=4;spacingRight=4;overflow=hidden;rotatable=0;points=[[0,0.5],[1,0.5]];portConstraint=eastwest;whiteSpace=wrap;html=1;" parent="1-GLfwU_gdSAN0xT_Nue-9" vertex="1">
          <mxGeometry y="98" width="350" height="42" as="geometry" />
        </mxCell>
        <mxCell id="6XG5QplGx-Yt1XKf_cvf-1" value="CustomerDAO" style="swimlane;fontStyle=1;align=center;verticalAlign=top;childLayout=stackLayout;horizontal=1;startSize=26;horizontalStack=0;resizeParent=1;resizeParentMax=0;resizeLast=0;collapsible=1;marginBottom=0;whiteSpace=wrap;html=1;" parent="1" vertex="1">
          <mxGeometry x="-2460" y="3590" width="360" height="200" as="geometry" />
        </mxCell>
        <mxCell id="6XG5QplGx-Yt1XKf_cvf-4" value="+ CustomerDAO()&lt;br&gt;# csvToObject(String csvLine) : Customer DataAccessObject&amp;lt;T&amp;gt;&lt;br&gt;+ findByEmail(String email) : Customer&lt;br&gt;#generateNewId(Customer customer, List&amp;lt;Customer&amp;gt; existingCustomers) : Customer DataAccessObject&amp;lt;T&amp;gt;&lt;br&gt;+ generateNextCustomerId() : String&lt;br&gt;+ getAll() : List&amp;lt;Customer&amp;gt;&lt;br&gt;# getId(Customer customer) : String DataAccessObject&amp;lt;T&amp;gt;&lt;br&gt;- parseCSVLine(String line) : String[]&lt;br&gt;+ updateContactInfo(String customerID, String phoneNo, String email" style="text;strokeColor=none;fillColor=none;align=left;verticalAlign=top;spacingLeft=4;spacingRight=4;overflow=hidden;rotatable=0;points=[[0,0.5],[1,0.5]];portConstraint=eastwest;whiteSpace=wrap;html=1;" parent="6XG5QplGx-Yt1XKf_cvf-1" vertex="1">
          <mxGeometry y="26" width="360" height="174" as="geometry" />
        </mxCell>
        <mxCell id="6XG5QplGx-Yt1XKf_cvf-5" value="DataAccessObject" style="swimlane;fontStyle=1;align=center;verticalAlign=top;childLayout=stackLayout;horizontal=1;startSize=26;horizontalStack=0;resizeParent=1;resizeParentMax=0;resizeLast=0;collapsible=1;marginBottom=0;whiteSpace=wrap;html=1;" parent="1" vertex="1">
          <mxGeometry x="-1935" y="3910" width="330" height="242" as="geometry" />
        </mxCell>
        <mxCell id="ceyopC86vSADz4O9Ktu8-80" value="Extends" style="endArrow=block;endSize=16;endFill=0;html=1;rounded=0;fontSize=12;curved=1;fillColor=#0050ef;strokeColor=#001DBC;" edge="1" parent="6XG5QplGx-Yt1XKf_cvf-5" target="6XG5QplGx-Yt1XKf_cvf-24">
          <mxGeometry width="160" relative="1" as="geometry">
            <mxPoint x="160" as="sourcePoint" />
            <mxPoint x="320" as="targetPoint" />
          </mxGeometry>
        </mxCell>
        <mxCell id="ceyopC86vSADz4O9Ktu8-81" value="Extends" style="endArrow=block;endSize=16;endFill=0;html=1;rounded=0;fontSize=12;curved=1;entryX=-0.002;entryY=0.326;entryDx=0;entryDy=0;entryPerimeter=0;" edge="1" parent="6XG5QplGx-Yt1XKf_cvf-5" target="6XG5QplGx-Yt1XKf_cvf-28">
          <mxGeometry width="160" relative="1" as="geometry">
            <mxPoint x="310" as="sourcePoint" />
            <mxPoint x="470" as="targetPoint" />
            <Array as="points">
              <mxPoint x="350" y="-130" />
            </Array>
          </mxGeometry>
        </mxCell>
        <mxCell id="ceyopC86vSADz4O9Ktu8-88" value="Extends" style="endArrow=block;endSize=16;endFill=0;html=1;rounded=0;fontSize=12;curved=1;entryX=0.873;entryY=1.011;entryDx=0;entryDy=0;entryPerimeter=0;fillColor=#6a00ff;strokeColor=#3700CC;" edge="1" parent="6XG5QplGx-Yt1XKf_cvf-5" target="6XG5QplGx-Yt1XKf_cvf-4">
          <mxGeometry width="160" relative="1" as="geometry">
            <mxPoint x="5" y="10" as="sourcePoint" />
            <mxPoint x="165" y="10" as="targetPoint" />
          </mxGeometry>
        </mxCell>
        <mxCell id="6XG5QplGx-Yt1XKf_cvf-6" value="# fileLock : Object&lt;br&gt;# filePath : String" style="text;strokeColor=none;fillColor=none;align=left;verticalAlign=top;spacingLeft=4;spacingRight=4;overflow=hidden;rotatable=0;points=[[0,0.5],[1,0.5]];portConstraint=eastwest;whiteSpace=wrap;html=1;" parent="6XG5QplGx-Yt1XKf_cvf-5" vertex="1">
          <mxGeometry y="26" width="330" height="34" as="geometry" />
        </mxCell>
        <mxCell id="6XG5QplGx-Yt1XKf_cvf-7" value="" style="line;strokeWidth=1;fillColor=none;align=left;verticalAlign=middle;spacingTop=-1;spacingLeft=3;spacingRight=3;rotatable=0;labelPosition=right;points=[];portConstraint=eastwest;strokeColor=inherit;" parent="6XG5QplGx-Yt1XKf_cvf-5" vertex="1">
          <mxGeometry y="60" width="330" height="10" as="geometry" />
        </mxCell>
        <mxCell id="ceyopC86vSADz4O9Ktu8-87" value="Extends" style="endArrow=block;endSize=16;endFill=0;html=1;rounded=0;fontSize=12;curved=1;" edge="1" parent="6XG5QplGx-Yt1XKf_cvf-5" target="6XG5QplGx-Yt1XKf_cvf-10">
          <mxGeometry width="160" relative="1" as="geometry">
            <mxPoint x="10" y="130" as="sourcePoint" />
            <mxPoint x="170" y="130" as="targetPoint" />
          </mxGeometry>
        </mxCell>
        <mxCell id="ceyopC86vSADz4O9Ktu8-90" value="Extends" style="endArrow=block;endSize=16;endFill=0;html=1;rounded=0;fontSize=12;curved=1;fillColor=#60a917;strokeColor=#2D7600;" edge="1" parent="6XG5QplGx-Yt1XKf_cvf-5" target="6XG5QplGx-Yt1XKf_cvf-46">
          <mxGeometry width="160" relative="1" as="geometry">
            <mxPoint x="5" y="70" as="sourcePoint" />
            <mxPoint x="165" y="70" as="targetPoint" />
          </mxGeometry>
        </mxCell>
        <mxCell id="6XG5QplGx-Yt1XKf_cvf-8" value="+ DataAccessObject(String filePath)&lt;br&gt;# csvToObject(String csvLine) : T&lt;br&gt;+delete(String id)&lt;br&gt;# generateNewID(T object, List&amp;lt;T&amp;gt; existingObjects) : T&lt;br&gt;# getId(T object) : String&lt;br&gt;+ load (String id) : T&lt;br&gt;&lt;div&gt;+ loadAll() : List&amp;lt;T&amp;gt;&lt;br&gt;# objectToCSV(T object) : String&lt;br&gt;+ save(T object)&lt;br&gt;+ update(T object)&lt;br&gt;- writeAllToFile(List&amp;lt;T&amp;gt;objects)&lt;/div&gt;" style="text;strokeColor=none;fillColor=none;align=left;verticalAlign=top;spacingLeft=4;spacingRight=4;overflow=hidden;rotatable=0;points=[[0,0.5],[1,0.5]];portConstraint=eastwest;whiteSpace=wrap;html=1;" parent="6XG5QplGx-Yt1XKf_cvf-5" vertex="1">
          <mxGeometry y="70" width="330" height="172" as="geometry" />
        </mxCell>
        <mxCell id="ceyopC86vSADz4O9Ktu8-89" value="Extends" style="endArrow=block;endSize=16;endFill=0;html=1;rounded=0;fontSize=12;curved=1;fillColor=#fa6800;strokeColor=#C73500;" edge="1" parent="6XG5QplGx-Yt1XKf_cvf-5" target="6XG5QplGx-Yt1XKf_cvf-41">
          <mxGeometry width="160" relative="1" as="geometry">
            <mxPoint x="5" y="200" as="sourcePoint" />
            <mxPoint x="165" y="200" as="targetPoint" />
          </mxGeometry>
        </mxCell>
        <mxCell id="6XG5QplGx-Yt1XKf_cvf-9" value="InvoiceDAO" style="swimlane;fontStyle=1;align=center;verticalAlign=top;childLayout=stackLayout;horizontal=1;startSize=26;horizontalStack=0;resizeParent=1;resizeParentMax=0;resizeLast=0;collapsible=1;marginBottom=0;whiteSpace=wrap;html=1;" parent="1" vertex="1">
          <mxGeometry x="-2660" y="4100" width="280" height="160" as="geometry" />
        </mxCell>
        <mxCell id="6XG5QplGx-Yt1XKf_cvf-10" value="+ InvoiceDAO()&lt;br&gt;# csvToObject(String csvLine) : Invoice DataAccessObject&amp;lt;T&amp;gt;&lt;br&gt;# getId(Invoice invoice) : String DataAccessObject&amp;lt;T&amp;gt;&lt;br&gt;+ getInvoicesByCustomer(String customerID) : List&amp;lt;Invoice&amp;gt;&amp;nbsp;&lt;div&gt;# objectToCSV(Invoice invoice): String DataAccessObject&amp;lt;T&amp;gt;&lt;/div&gt;" style="text;strokeColor=none;fillColor=none;align=left;verticalAlign=top;spacingLeft=4;spacingRight=4;overflow=hidden;rotatable=0;points=[[0,0.5],[1,0.5]];portConstraint=eastwest;whiteSpace=wrap;html=1;" parent="6XG5QplGx-Yt1XKf_cvf-9" vertex="1">
          <mxGeometry y="26" width="280" height="134" as="geometry" />
        </mxCell>
        <mxCell id="6XG5QplGx-Yt1XKf_cvf-13" value="Manager" style="swimlane;fontStyle=1;align=center;verticalAlign=top;childLayout=stackLayout;horizontal=1;startSize=26;horizontalStack=0;resizeParent=1;resizeParentMax=0;resizeLast=0;collapsible=1;marginBottom=0;whiteSpace=wrap;html=1;" parent="1" vertex="1">
          <mxGeometry x="-1870" y="2700" width="300" height="330" as="geometry" />
        </mxCell>
        <mxCell id="6XG5QplGx-Yt1XKf_cvf-14" value="- HEX_PATTERN : Pattern&lt;br&gt;- SYMBOL_PATTERN : Pattern&lt;br&gt;- authorizationLevel : int&lt;br&gt;- hashedPasswor : String&lt;br&gt;- managerID : String&lt;br&gt;- name : String&lt;br&gt;- salt : String" style="text;strokeColor=none;fillColor=none;align=left;verticalAlign=top;spacingLeft=4;spacingRight=4;overflow=hidden;rotatable=0;points=[[0,0.5],[1,0.5]];portConstraint=eastwest;whiteSpace=wrap;html=1;" parent="6XG5QplGx-Yt1XKf_cvf-13" vertex="1">
          <mxGeometry y="26" width="300" height="114" as="geometry" />
        </mxCell>
        <mxCell id="6XG5QplGx-Yt1XKf_cvf-15" value="" style="line;strokeWidth=1;fillColor=none;align=left;verticalAlign=middle;spacingTop=-1;spacingLeft=3;spacingRight=3;rotatable=0;labelPosition=right;points=[];portConstraint=eastwest;strokeColor=inherit;" parent="6XG5QplGx-Yt1XKf_cvf-13" vertex="1">
          <mxGeometry y="140" width="300" height="8" as="geometry" />
        </mxCell>
        <mxCell id="ceyopC86vSADz4O9Ktu8-70" value="1" style="endArrow=open;html=1;endSize=12;startArrow=diamondThin;startSize=14;startFill=0;edgeStyle=orthogonalEdgeStyle;align=left;verticalAlign=bottom;rounded=0;fontSize=12;curved=1;entryX=0;entryY=0.051;entryDx=0;entryDy=0;entryPerimeter=0;" edge="1" parent="6XG5QplGx-Yt1XKf_cvf-13" target="ceyopC86vSADz4O9Ktu8-60">
          <mxGeometry x="-1" y="3" relative="1" as="geometry">
            <mxPoint x="300" y="170" as="sourcePoint" />
            <mxPoint x="460" y="170" as="targetPoint" />
            <Array as="points">
              <mxPoint x="430" y="170" />
              <mxPoint x="430" y="578" />
            </Array>
          </mxGeometry>
        </mxCell>
        <mxCell id="6XG5QplGx-Yt1XKf_cvf-16" value="+ Manager(String managerID, String name,&amp;nbsp; int authorizationLevel)&lt;br&gt;+authenticatePassword(String InputPassword) : boolean&lt;br&gt;- generateSalt() : String&lt;br&gt;+ getters&lt;br&gt;+ setters&lt;br&gt;+ hasPermission(String action) : boolean&lt;br&gt;- hashPassword(String password, String salt): String&lt;br&gt;+ isValidPassword(String password) : boolean&lt;br&gt;+ toString() : String Object&lt;br&gt;+ updatePassword(String newPassword)" style="text;strokeColor=none;fillColor=none;align=left;verticalAlign=top;spacingLeft=4;spacingRight=4;overflow=hidden;rotatable=0;points=[[0,0.5],[1,0.5]];portConstraint=eastwest;whiteSpace=wrap;html=1;" parent="6XG5QplGx-Yt1XKf_cvf-13" vertex="1">
          <mxGeometry y="148" width="300" height="182" as="geometry" />
        </mxCell>
        <mxCell id="6XG5QplGx-Yt1XKf_cvf-17" value="ManagerDAO" style="swimlane;fontStyle=1;align=center;verticalAlign=top;childLayout=stackLayout;horizontal=1;startSize=26;horizontalStack=0;resizeParent=1;resizeParentMax=0;resizeLast=0;collapsible=1;marginBottom=0;whiteSpace=wrap;html=1;" parent="1" vertex="1">
          <mxGeometry x="-1685" y="4334" width="340" height="180" as="geometry" />
        </mxCell>
        <mxCell id="6XG5QplGx-Yt1XKf_cvf-18" value="+ ManagerDAO()&lt;br&gt;+ authenticate(String managerID, String password): Manager&lt;br&gt;# csvToObject(String csvLine) : Manager DataAccessObject&amp;lt;T&amp;gt;&lt;br&gt;+ findById(String managerID) : Manager&lt;br&gt;+ getAllManagers() : List&amp;lt;Manager&amp;gt;&lt;br&gt;# getId(Manager manager) : String DataAccessObject&amp;lt;T&amp;gt;&lt;br&gt;# objectToCSV(Manager manager) : String DataAccessObject&amp;lt;T&amp;gt;&lt;br&gt;- parseCSVLine(String line) : String[]" style="text;strokeColor=none;fillColor=none;align=left;verticalAlign=top;spacingLeft=4;spacingRight=4;overflow=hidden;rotatable=0;points=[[0,0.5],[1,0.5]];portConstraint=eastwest;whiteSpace=wrap;html=1;" parent="6XG5QplGx-Yt1XKf_cvf-17" vertex="1">
          <mxGeometry y="26" width="340" height="154" as="geometry" />
        </mxCell>
        <mxCell id="6XG5QplGx-Yt1XKf_cvf-21" value="PaymentDAO" style="swimlane;fontStyle=0;childLayout=stackLayout;horizontal=1;startSize=26;fillColor=none;horizontalStack=0;resizeParent=1;resizeParentMax=0;resizeLast=0;collapsible=1;marginBottom=0;whiteSpace=wrap;html=1;" parent="1" vertex="1">
          <mxGeometry x="-1985" y="3450" width="460" height="170" as="geometry" />
        </mxCell>
        <mxCell id="6XG5QplGx-Yt1XKf_cvf-24" value="+ PaymentDAO()&lt;br&gt;# csvToObject(String csvLine) : Payment DataAccessObject&amp;lt;T&amp;gt;&lt;br&gt;# generateNewId(Payment payment, List&amp;lt;Payment&amp;gt; existingPayments) : Payment&lt;br&gt;DataAccessObject&amp;lt;T&amp;gt;&lt;br&gt;+ getByReferenceNumber(String referenceNumber) : Payment&lt;br&gt;# getId(Payment payment) String DataAccessObject&amp;lt;T&amp;gt;&lt;br&gt;+ getTotalEarnings() : double&lt;br&gt;# objectToCSV(Payment payment) : String DataAccessObject&amp;lt;T&amp;gt;&lt;br&gt;- searchByReferenceInRawData(String referenceNumber) : Payment" style="text;strokeColor=none;fillColor=none;align=left;verticalAlign=top;spacingLeft=4;spacingRight=4;overflow=hidden;rotatable=0;points=[[0,0.5],[1,0.5]];portConstraint=eastwest;whiteSpace=wrap;html=1;" parent="6XG5QplGx-Yt1XKf_cvf-21" vertex="1">
          <mxGeometry y="26" width="460" height="144" as="geometry" />
        </mxCell>
        <mxCell id="6XG5QplGx-Yt1XKf_cvf-25" value="ReminderDAO" style="swimlane;fontStyle=0;childLayout=stackLayout;horizontal=1;startSize=26;fillColor=none;horizontalStack=0;resizeParent=1;resizeParentMax=0;resizeLast=0;collapsible=1;marginBottom=0;whiteSpace=wrap;html=1;" parent="1" vertex="1">
          <mxGeometry x="-1445" y="3640" width="370" height="170" as="geometry" />
        </mxCell>
        <mxCell id="6XG5QplGx-Yt1XKf_cvf-28" value="+ ReminderDAO()&lt;br&gt;# csvToObject(String csvLine) : Reminder&amp;nbsp;&amp;nbsp;DataAccessObject&amp;lt;T&amp;gt;&lt;br&gt;# generateNewId(Reminder reminder, List&amp;lt;Reminder&amp;lt; existingReminders) :&amp;nbsp; Reminder&amp;nbsp;&amp;nbsp;DataAccessObject&amp;lt;T&amp;gt;&lt;br&gt;# getID(Reminder reminder) : String&amp;nbsp;&amp;nbsp;DataAccessObject&amp;lt;T&amp;gt;&lt;br&gt;+ getPendingReminders() : List &amp;lt;Reminder&amp;gt;&lt;br&gt;+ getRemindersByPriority(String priority): List&amp;lt;Reminder&amp;gt;&lt;br&gt;+ getRemindersByType(String type) : List&amp;lt;Reminder&amp;gt;&lt;br&gt;# objectToCSV(Reminder reminder) : String&amp;nbsp;&amp;nbsp;DataAccessObject&amp;lt;T&amp;gt;" style="text;strokeColor=none;fillColor=none;align=left;verticalAlign=top;spacingLeft=4;spacingRight=4;overflow=hidden;rotatable=0;points=[[0,0.5],[1,0.5]];portConstraint=eastwest;whiteSpace=wrap;html=1;" parent="6XG5QplGx-Yt1XKf_cvf-25" vertex="1">
          <mxGeometry y="26" width="370" height="144" as="geometry" />
        </mxCell>
        <mxCell id="6XG5QplGx-Yt1XKf_cvf-33" value="RentalDAO" style="swimlane;fontStyle=0;childLayout=stackLayout;horizontal=1;startSize=26;fillColor=none;horizontalStack=0;resizeParent=1;resizeParentMax=0;resizeLast=0;collapsible=1;marginBottom=0;whiteSpace=wrap;html=1;" parent="1" vertex="1">
          <mxGeometry x="-1435" y="3980" width="360" height="210" as="geometry" />
        </mxCell>
        <mxCell id="6XG5QplGx-Yt1XKf_cvf-36" value="+ RentalDAO()&lt;br&gt;# csvToObject(String csvLine) : Rental&amp;nbsp;&amp;nbsp;DataAccessObject&amp;lt;T&amp;gt;&lt;br&gt;# generateNewId(Rental rental, List&amp;lt;Rental&amp;gt; existingRentals) : Rental&amp;nbsp;&amp;nbsp;DataAccessObject&amp;lt;T&amp;gt;&lt;br&gt;+ getActiveRentals(): List&amp;lt;Rental&amp;gt;&lt;br&gt;+ getActiveRentalsByCustomerId(int customerId) : List &amp;lt;Rental&amp;gt;&lt;br&gt;+ getAll(): List&amp;lt;Rental&amp;gt;&lt;br&gt;+ getByCustomerId(int customerId) : List&amp;lt;Rental&amp;gt;&lt;br&gt;+ getById(int rentalId) : Rental&lt;br&gt;+ getByVehicleId(int vehicleId) : List&amp;lt;Rental&amp;gt;&lt;br&gt;# getId(Rental rental) : String&amp;nbsp;&amp;nbsp;DataAccessObject&amp;lt;T&amp;gt;&lt;br&gt;# objectToCSV(Rental rental) : String&amp;nbsp;&amp;nbsp;DataAccessObject&amp;lt;T&amp;gt;" style="text;strokeColor=none;fillColor=none;align=left;verticalAlign=top;spacingLeft=4;spacingRight=4;overflow=hidden;rotatable=0;points=[[0,0.5],[1,0.5]];portConstraint=eastwest;whiteSpace=wrap;html=1;" parent="6XG5QplGx-Yt1XKf_cvf-33" vertex="1">
          <mxGeometry y="26" width="360" height="184" as="geometry" />
        </mxCell>
        <mxCell id="6XG5QplGx-Yt1XKf_cvf-37" value="RentalPeriodDAO" style="swimlane;fontStyle=0;childLayout=stackLayout;horizontal=1;startSize=26;fillColor=none;horizontalStack=0;resizeParent=1;resizeParentMax=0;resizeLast=0;collapsible=1;marginBottom=0;whiteSpace=wrap;html=1;" parent="1" vertex="1">
          <mxGeometry x="-2200" y="4334" width="420" height="170" as="geometry" />
        </mxCell>
        <mxCell id="6XG5QplGx-Yt1XKf_cvf-40" value="+ RentalPeriodDAO()&lt;br&gt;# csvToObject(String csvLine) : RentalPeriod&amp;nbsp;&amp;nbsp;DataAccessObject&amp;lt;T&amp;gt;&lt;br&gt;# generateNewId(RentalPeriod period, List&amp;lt;RentalPeriod&amp;gt; existingPeriods) : RentalPeriod&lt;br&gt;+ getActivePeriods() : List &amp;lt;RentalPeriod&amp;gt;&lt;br&gt;# getId(RentalPeriod period) : String&amp;nbsp;&amp;nbsp;DataAccessObject&amp;lt;T&amp;gt;&lt;br&gt;+ getOverduePeriods() : List &amp;lt;RentalPeriod&amp;gt;&lt;br&gt;+ getTotalRevenueFromActivePeriods() : double&lt;br&gt;# objectToCSV(RentalPeriod period) : String&amp;nbsp;&amp;nbsp;DataAccessObject&amp;lt;T&amp;gt;" style="text;strokeColor=none;fillColor=none;align=left;verticalAlign=top;spacingLeft=4;spacingRight=4;overflow=hidden;rotatable=0;points=[[0,0.5],[1,0.5]];portConstraint=eastwest;whiteSpace=wrap;html=1;" parent="6XG5QplGx-Yt1XKf_cvf-37" vertex="1">
          <mxGeometry y="26" width="420" height="144" as="geometry" />
        </mxCell>
        <mxCell id="6XG5QplGx-Yt1XKf_cvf-41" value="SafetyCheckDAO" style="swimlane;fontStyle=0;childLayout=stackLayout;horizontal=1;startSize=26;fillColor=none;horizontalStack=0;resizeParent=1;resizeParentMax=0;resizeLast=0;collapsible=1;marginBottom=0;whiteSpace=wrap;html=1;" parent="1" vertex="1">
          <mxGeometry x="-2695" y="4310" width="415" height="120" as="geometry" />
        </mxCell>
        <mxCell id="6XG5QplGx-Yt1XKf_cvf-42" value="+ SafetyCheckDAO()&lt;br&gt;# csvToObject(String csvLine) : SafetyCheck&lt;br&gt;# generateNewId(SafetyCheck safetyCheck,&amp;nbsp; List&amp;lt;SafetyCheck&amp;gt; existingChecks) : SafetyCheck&lt;div&gt;# getId(SafetyCheck safetyCheck) : String&lt;br&gt;&lt;/div&gt;&lt;div&gt;# objectToCSV(SafetyCheck safetyCheck): String&lt;/div&gt;" style="text;strokeColor=none;fillColor=none;align=left;verticalAlign=top;spacingLeft=4;spacingRight=4;overflow=hidden;rotatable=0;points=[[0,0.5],[1,0.5]];portConstraint=eastwest;whiteSpace=wrap;html=1;" parent="6XG5QplGx-Yt1XKf_cvf-41" vertex="1">
          <mxGeometry y="26" width="415" height="94" as="geometry" />
        </mxCell>
        <mxCell id="6XG5QplGx-Yt1XKf_cvf-45" value="VehicleDAO" style="swimlane;fontStyle=0;childLayout=stackLayout;horizontal=1;startSize=26;fillColor=none;horizontalStack=0;resizeParent=1;resizeParentMax=0;resizeLast=0;collapsible=1;marginBottom=0;whiteSpace=wrap;html=1;" parent="1" vertex="1">
          <mxGeometry x="-2710" y="3870" width="380" height="170" as="geometry" />
        </mxCell>
        <mxCell id="6XG5QplGx-Yt1XKf_cvf-46" value="+ VehicleDAO()&lt;br&gt;# csvToObject(String csvLine) : Vehicle&lt;br&gt;#&amp;nbsp;generateNewId(Vehicle vehicle, List&amp;lt;Vehicle&amp;gt; existingVehicles)&lt;br&gt;+ getAvailableVehicles() : List&amp;lt;Vehicle&amp;gt;&lt;br&gt;# getId(Vehicle vehicle) : String&lt;br&gt;# objectToCSV(Vehicle vehicle) : String&lt;br&gt;+ returnVehicle(String vehicleID)&lt;br&gt;+ updateVehicleCondition(String vehicleID, String newCondition)&amp;nbsp;" style="text;strokeColor=none;fillColor=none;align=left;verticalAlign=top;spacingLeft=4;spacingRight=4;overflow=hidden;rotatable=0;points=[[0,0.5],[1,0.5]];portConstraint=eastwest;whiteSpace=wrap;html=1;" parent="6XG5QplGx-Yt1XKf_cvf-45" vertex="1">
          <mxGeometry y="26" width="380" height="144" as="geometry" />
        </mxCell>
        <mxCell id="6XG5QplGx-Yt1XKf_cvf-49" value="DurationManager" style="swimlane;fontStyle=1;align=center;verticalAlign=top;childLayout=stackLayout;horizontal=1;startSize=20;horizontalStack=0;resizeParent=1;resizeParentMax=0;resizeLast=0;collapsible=1;marginBottom=0;whiteSpace=wrap;html=1;" parent="1" vertex="1">
          <mxGeometry x="-3330" y="5400" width="630" height="580" as="geometry" />
        </mxCell>
        <mxCell id="6XG5QplGx-Yt1XKf_cvf-50" value="- nextPeriodId : int&lt;br&gt;- nextReminderId : int&lt;br&gt;- periodLock : Object&lt;br&gt;- reminderLock : Object&lt;br&gt;- reminders : List&amp;lt;Reminder&amp;gt;&lt;br&gt;- rentalPeriods : List&amp;lt;RentalPeriod&amp;gt;" style="text;strokeColor=none;fillColor=none;align=left;verticalAlign=top;spacingLeft=4;spacingRight=4;overflow=hidden;rotatable=0;points=[[0,0.5],[1,0.5]];portConstraint=eastwest;whiteSpace=wrap;html=1;" parent="6XG5QplGx-Yt1XKf_cvf-49" vertex="1">
          <mxGeometry y="20" width="630" height="100" as="geometry" />
        </mxCell>
        <mxCell id="6XG5QplGx-Yt1XKf_cvf-51" value="" style="line;strokeWidth=1;fillColor=none;align=left;verticalAlign=middle;spacingTop=-1;spacingLeft=3;spacingRight=3;rotatable=0;labelPosition=right;points=[];portConstraint=eastwest;strokeColor=inherit;" parent="6XG5QplGx-Yt1XKf_cvf-49" vertex="1">
          <mxGeometry y="120" width="630" height="8" as="geometry" />
        </mxCell>
        <mxCell id="6XG5QplGx-Yt1XKf_cvf-52" value="+DurationManager()&lt;br&gt;+addReminder (Reminder reminder) addRentalPeriod(RentalPeriod period)&lt;br&gt;+cancelRentalPeriod(int periodld)&lt;br&gt;+completeRentalPeriod (int periodld)&lt;br&gt;+createBasicRentalPeriod (int rentalld, LocalDate startDate, LocalDate endDate, double dailyRate): RentalPeriod&lt;div&gt;+createInsuredRentalPeriod (int rentalld, LocalDate startDate, LocalDate endDate, double dailyRate):&amp;nbsp;&lt;span style=&quot;background-color: transparent; color: light-dark(rgb(0, 0, 0), rgb(255, 255, 255));&quot;&gt;RentalPeriod&lt;br&gt;+createMaintenanceReminder (int vehicleld, LocalDateTime&amp;nbsp;&lt;/span&gt;&lt;span style=&quot;background-color: transparent; color: light-dark(rgb(0, 0, 0), rgb(255, 255, 255));&quot;&gt;maintenance Date, String maintenance Type) : Reminder&lt;/span&gt;&lt;/div&gt;&lt;div&gt;+ createPaymentReminder (int customerld, LocalDateTime paymentDate, double&amp;nbsp;amount) : Reminder&lt;br&gt;+ createReturnReminder (int rentalld, LocalDate Time&amp;nbsp;returnDate) : Reminder&lt;br&gt;+ extendRentalPeriod (int periodld, int additionalDays)&lt;br&gt;+generateOneDayReturn Reminders()&lt;br&gt;+ generateReturn RemindersForActivePeriods() getActiveRentalPeriods(): List&amp;lt;RentalPeriod&amp;gt;&lt;br&gt;+getAllReminders(): List&amp;lt;Reminder&amp;gt;&lt;br&gt;+ getAllRentalPeriods(): List&amp;lt;RentalPeriod&amp;gt;&lt;br&gt;+ getOverdueReminders(): List&amp;lt;Reminder&amp;gt;&lt;br&gt;+ getOverdueRentalPeriods(): List&amp;lt;RentalPeriod&amp;gt;&lt;br&gt;+ getPendingReminders(): List&amp;lt;Reminder&amp;gt;&lt;br&gt;+ getPendingReminders For Customer(int customerld): List&amp;lt;Reminder&amp;gt;&lt;br&gt;+ getRemindersByType(String type): List&amp;lt;Reminder&amp;gt;&lt;br&gt;+ getRemindersDueSoon(): List&amp;lt;Reminder&amp;gt;&lt;br&gt;+ getRentalPeriodByld(int periodld): RentalPeriod&lt;br&gt;+ getRentalPeriodsByRentalld(int rentalld): List&amp;lt;RentalPeriod&amp;gt;&lt;br&gt;+ getRentalPeriods EndingSoon(): List&amp;lt;RentalPeriod&amp;gt;&lt;br&gt;+ getTotalActiveReminders() : int&lt;br&gt;+ getTotalActiveRentalPeriods() : int&lt;br&gt;+ getTotalRevenueFromActivePeriods() : double&lt;br&gt;+ markReminder AsCompleted (int reminderld)&lt;br&gt;+ markReminderAsSent(int reminderld)&lt;br&gt;+ markReminderCompleted (int associatedld, String reminder Type)&lt;/div&gt;" style="text;strokeColor=none;fillColor=none;align=left;verticalAlign=top;spacingLeft=4;spacingRight=4;overflow=hidden;rotatable=0;points=[[0,0.5],[1,0.5]];portConstraint=eastwest;whiteSpace=wrap;html=1;" parent="6XG5QplGx-Yt1XKf_cvf-49" vertex="1">
          <mxGeometry y="128" width="630" height="452" as="geometry" />
        </mxCell>
        <mxCell id="6XG5QplGx-Yt1XKf_cvf-53" value="Reminder" style="swimlane;fontStyle=1;align=center;verticalAlign=top;childLayout=stackLayout;horizontal=1;startSize=26;horizontalStack=0;resizeParent=1;resizeParentMax=0;resizeLast=0;collapsible=1;marginBottom=0;whiteSpace=wrap;html=1;" parent="1" vertex="1">
          <mxGeometry x="-3800" y="6060" width="570" height="580" as="geometry" />
        </mxCell>
        <mxCell id="6XG5QplGx-Yt1XKf_cvf-54" value="- associatedld: int&lt;br&gt;- createdDate: LocalDateTime&lt;br&gt;- dueDate: LocalDateTime&lt;br&gt;- message: String&lt;br&gt;- priority: String&lt;br&gt;- reminderld: int&lt;br&gt;- reminder Type : String&lt;br&gt;- status: String" style="text;strokeColor=none;fillColor=none;align=left;verticalAlign=top;spacingLeft=4;spacingRight=4;overflow=hidden;rotatable=0;points=[[0,0.5],[1,0.5]];portConstraint=eastwest;whiteSpace=wrap;html=1;" parent="6XG5QplGx-Yt1XKf_cvf-53" vertex="1">
          <mxGeometry y="26" width="570" height="124" as="geometry" />
        </mxCell>
        <mxCell id="6XG5QplGx-Yt1XKf_cvf-55" value="" style="line;strokeWidth=1;fillColor=none;align=left;verticalAlign=middle;spacingTop=-1;spacingLeft=3;spacingRight=3;rotatable=0;labelPosition=right;points=[];portConstraint=eastwest;strokeColor=inherit;" parent="6XG5QplGx-Yt1XKf_cvf-53" vertex="1">
          <mxGeometry y="150" width="570" height="8" as="geometry" />
        </mxCell>
        <mxCell id="6XG5QplGx-Yt1XKf_cvf-56" value="+ Reminder()&lt;br&gt;+ Reminder (int reminderld, String reminder Type, String message, LocalDateTime dueDate, int associatedld, String priority) &lt;br&gt;&lt;div&gt;+ createMaintenance Reminder (int vehicleld, LocalDate Time maintenance Date, String maintenance Type): Reminder&lt;br&gt;+ createPaymentReminder (int customerld, LocalDateTime paymentDate, double amount): Reminder&lt;br&gt;+ createReturnReminder (int rentalld, LocalDate Time returnDate): Reminder&lt;br&gt;+ getAssociatedld() : int&lt;br&gt;+ getCreatedDate(): LocalDateTime&lt;br&gt;+ getDays UntilDue() : long&lt;br&gt;+ getDueDate(): LocalDateTime&lt;br&gt;+ getHoursUntilDue(): long&lt;br&gt;+ getMessage() : String&lt;br&gt;+ getPriority(): String&lt;br&gt;+ getReminderld(): int&lt;br&gt;+ getReminder Type() : String&lt;br&gt;+ getStatus(): String&lt;br&gt;+ isDueSoon(): boolean&lt;br&gt;+ isOverdue(): boolean&lt;br&gt;+ markAsCompleted()&lt;br&gt;+ markAsSent()&lt;br&gt;+ setAssociatedId(int associatedld)&lt;br&gt;+ setDueDate (LocalDateTime dueDate)&lt;br&gt;+ setMessage(String message)&lt;br&gt;+ setPriority(String priority)&lt;br&gt;+ setReminderld(int reminderld)&lt;br&gt;+ setReminderType(String reminder Type)&lt;br&gt;+ setStatus(String status)&lt;br&gt;+ toString(): String ↑ Object&lt;br&gt;&lt;div&gt;&lt;br&gt;&lt;/div&gt;&lt;/div&gt;" style="text;strokeColor=none;fillColor=none;align=left;verticalAlign=top;spacingLeft=4;spacingRight=4;overflow=hidden;rotatable=0;points=[[0,0.5],[1,0.5]];portConstraint=eastwest;whiteSpace=wrap;html=1;" parent="6XG5QplGx-Yt1XKf_cvf-53" vertex="1">
          <mxGeometry y="158" width="570" height="422" as="geometry" />
        </mxCell>
        <mxCell id="6XG5QplGx-Yt1XKf_cvf-58" value="RentalPeriod" style="swimlane;fontStyle=1;align=center;verticalAlign=top;childLayout=stackLayout;horizontal=1;startSize=26;horizontalStack=0;resizeParent=1;resizeParentMax=0;resizeLast=0;collapsible=1;marginBottom=0;whiteSpace=wrap;html=1;" parent="1" vertex="1">
          <mxGeometry x="-2960" y="6180" width="450" height="750" as="geometry" />
        </mxCell>
        <mxCell id="6XG5QplGx-Yt1XKf_cvf-59" value="- createdDate: LocalDateTime dailyRate: double&lt;br&gt;- endDate: LocalDate&lt;br&gt;- includesInsurance : boolean&lt;br&gt;- notes: String&lt;br&gt;- periodld: int&lt;br&gt;- rentalld: int&lt;br&gt;- startDate: LocalDate&lt;br&gt;- status: String&lt;br&gt;- totalCost: double" style="text;strokeColor=none;fillColor=none;align=left;verticalAlign=top;spacingLeft=4;spacingRight=4;overflow=hidden;rotatable=0;points=[[0,0.5],[1,0.5]];portConstraint=eastwest;whiteSpace=wrap;html=1;" parent="6XG5QplGx-Yt1XKf_cvf-58" vertex="1">
          <mxGeometry y="26" width="450" height="144" as="geometry" />
        </mxCell>
        <mxCell id="6XG5QplGx-Yt1XKf_cvf-60" value="" style="line;strokeWidth=1;fillColor=none;align=left;verticalAlign=middle;spacingTop=-1;spacingLeft=3;spacingRight=3;rotatable=0;labelPosition=right;points=[];portConstraint=eastwest;strokeColor=inherit;" parent="6XG5QplGx-Yt1XKf_cvf-58" vertex="1">
          <mxGeometry y="170" width="450" height="8" as="geometry" />
        </mxCell>
        <mxCell id="6XG5QplGx-Yt1XKf_cvf-61" value="&lt;div class=&quot;js-append-result-card p-4 w-full&quot;&gt;&lt;div class=&quot;result-card mt-2 js-result-card-0&quot;&gt;&lt;div class=&quot;py-3 w-full js-single-img-preview border border-borderColor rounded-xl animate-fadeInTop&quot;&gt;&lt;div data-index=&quot;0&quot; class=&quot;js-result-text-area-0 max-h-24 overflow-y-auto p-4 pt-0 break-words js-show-after-result-0&quot;&gt;+ RentalPeriod()&lt;br&gt;+ RentalPeriod(int periodld, int rentalld, LocalDate startDate, LocalDate &lt;br/&gt;endDate, double dailyRate, boolean includesInsurance) calculate &lt;br/&gt;TotalCost(): double&lt;br&gt;+ cancelPeriod()&lt;br&gt;+ completePeriod()&lt;br&gt;+ createBasicRental(int rentalld, LocalDate startDate, LocalDate endDate, double dailyRate): RentalPeriod&lt;br&gt;+ createInsuredRental(int rentalld, LocalDate startDate, LocalDate endDate, double dailyRate): RentalPeriod&lt;br&gt;+ extendPeriod (LocalDate newEndDate)&lt;br&gt;+ extendPeriod(int additionalDays)&lt;br&gt;+ getCreatedDate(): LocalDateTime&lt;br&gt;+ getDailyRate(): double&lt;br&gt;+ getDurationInDays(): long&lt;br&gt;+ getDurationInHours() : long&lt;br&gt;+ getEndDate(): LocalDate getNotes(): String&lt;br&gt;+ getPeriodld(): int&lt;br&gt;+ getRemainingCost(): double&lt;br&gt;+ getRentalld() : int&lt;br&gt;+ getStartDate(): LocalDate&lt;br&gt;+ getStatus(): String&lt;br&gt;+ getTotalCost(): double&lt;br&gt;+ isActive(): boolean&lt;br&gt;+ isEndingSoon(): boolean&lt;br&gt;+ isEndingWithinOneDay(): boolean&lt;br&gt;+ isIncludesInsurance() : boolean&lt;br&gt;+ isOverdue(): boolean&lt;br&gt;+ isStartingSoon(): boolean&lt;br&gt;+ setDailyRate (double dailyRate)&lt;br&gt;+ setEndDate (LocalDate endDate)&lt;br&gt;+ setIncludesInsurance (boolean includesInsurance)&lt;br&gt;+ setNotes(String notes)&lt;br&gt;+ setPeriodld(int periodld)&lt;br&gt;+ setRentalld(int rentalld)&lt;br&gt;+ setStartDate(LocalDate startDate)&lt;br&gt;+ setStatus(String status)&lt;br&gt;+ toString(): String ↑ Object&lt;/div&gt;&lt;br/&gt;            &lt;/div&gt;&lt;br/&gt;        &lt;/div&gt;&lt;/div&gt;&lt;br/&gt;                                                                &lt;div class=&quot;w-full border-t border-[#D9D9D9]&quot;&gt;&lt;br/&gt;    &lt;div class=&quot;rounded-lg bg-[#F1F1F1] text-center feedback_section p-4 m-4&quot;&gt;&lt;br/&gt;        &lt;h3 class=&quot;text-[#161618] text-lg font-semibold close_on_form&quot;&gt;&lt;/h3&gt;&lt;/div&gt;&lt;/div&gt;" style="text;strokeColor=none;fillColor=none;align=left;verticalAlign=top;spacingLeft=4;spacingRight=4;overflow=hidden;rotatable=0;points=[[0,0.5],[1,0.5]];portConstraint=eastwest;whiteSpace=wrap;html=1;" parent="6XG5QplGx-Yt1XKf_cvf-58" vertex="1">
          <mxGeometry y="178" width="450" height="572" as="geometry" />
        </mxCell>
        <mxCell id="6XG5QplGx-Yt1XKf_cvf-62" value="CashPayment" style="swimlane;fontStyle=1;align=center;verticalAlign=top;childLayout=stackLayout;horizontal=1;startSize=26;horizontalStack=0;resizeParent=1;resizeParentMax=0;resizeLast=0;collapsible=1;marginBottom=0;whiteSpace=wrap;html=1;" parent="1" vertex="1">
          <mxGeometry x="240" y="4244" width="390" height="280" as="geometry" />
        </mxCell>
        <mxCell id="6XG5QplGx-Yt1XKf_cvf-63" value="&lt;div&gt;- cashierName: String&lt;/div&gt;&lt;div&gt;- isPaid: boolean&lt;/div&gt;&lt;div&gt;- paymentDeadline: LocalDateTime&lt;/div&gt;&lt;div&gt;- paymentLocation: String&lt;/div&gt;" style="text;strokeColor=none;fillColor=none;align=left;verticalAlign=top;spacingLeft=4;spacingRight=4;overflow=hidden;rotatable=0;points=[[0,0.5],[1,0.5]];portConstraint=eastwest;whiteSpace=wrap;html=1;" parent="6XG5QplGx-Yt1XKf_cvf-62" vertex="1">
          <mxGeometry y="26" width="390" height="74" as="geometry" />
        </mxCell>
        <mxCell id="6XG5QplGx-Yt1XKf_cvf-64" value="" style="line;strokeWidth=1;fillColor=none;align=left;verticalAlign=middle;spacingTop=-1;spacingLeft=3;spacingRight=3;rotatable=0;labelPosition=right;points=[];portConstraint=eastwest;strokeColor=inherit;" parent="6XG5QplGx-Yt1XKf_cvf-62" vertex="1">
          <mxGeometry y="100" width="390" height="8" as="geometry" />
        </mxCell>
        <mxCell id="6XG5QplGx-Yt1XKf_cvf-65" value="&lt;div&gt;+ CashPayment(String paymentID, double totalAmount, String timestamp, String customerID) &lt;br&gt;- generatePaymentSlip()&lt;/div&gt;&lt;div&gt;+ getPaymentDeadline(): LocalDateTime&lt;/div&gt;&lt;div&gt;+ getPaymentLocation(): String&lt;/div&gt;&lt;div&gt;+ isExpired(): boolean&lt;/div&gt;&lt;div&gt;+ isPaid(): boolean&lt;/div&gt;&lt;div&gt;+ markAsPaid(String cashierName)&lt;/div&gt;&lt;div&gt;+ processPayment() ↑ Payment&lt;/div&gt;&lt;div&gt;- saveReceiptToFile()&lt;/div&gt;&lt;div&gt;- updatePaymentSlip()&lt;/div&gt;&lt;div&gt;&lt;br&gt;&lt;/div&gt;" style="text;strokeColor=none;fillColor=none;align=left;verticalAlign=top;spacingLeft=4;spacingRight=4;overflow=hidden;rotatable=0;points=[[0,0.5],[1,0.5]];portConstraint=eastwest;whiteSpace=wrap;html=1;" parent="6XG5QplGx-Yt1XKf_cvf-62" vertex="1">
          <mxGeometry y="108" width="390" height="172" as="geometry" />
        </mxCell>
        <mxCell id="ceyopC86vSADz4O9Ktu8-1" value="CreditCardPayment" style="swimlane;fontStyle=1;align=center;verticalAlign=top;childLayout=stackLayout;horizontal=1;startSize=26;horizontalStack=0;resizeParent=1;resizeParentMax=0;resizeLast=0;collapsible=1;marginBottom=0;whiteSpace=wrap;html=1;" vertex="1" parent="1">
          <mxGeometry x="1290" y="4264" width="500" height="270" as="geometry" />
        </mxCell>
        <mxCell id="ceyopC86vSADz4O9Ktu8-2" value="&lt;div&gt;&lt;span style=&quot;background-color: transparent; color: light-dark(rgb(0, 0, 0), rgb(255, 255, 255));&quot;&gt;- cardHolderName: String&lt;/span&gt;&lt;/div&gt;&lt;div&gt;- cardNumber: String&lt;/div&gt;&lt;div&gt;- cardType: String&lt;br&gt;- cvv: String&lt;/div&gt;&lt;div&gt;- expiryDate: String &lt;br&gt;- scanner : Scanner&lt;br&gt;&lt;br&gt;&lt;/div&gt;" style="text;strokeColor=none;fillColor=none;align=left;verticalAlign=top;spacingLeft=4;spacingRight=4;overflow=hidden;rotatable=0;points=[[0,0.5],[1,0.5]];portConstraint=eastwest;whiteSpace=wrap;html=1;" vertex="1" parent="ceyopC86vSADz4O9Ktu8-1">
          <mxGeometry y="26" width="500" height="94" as="geometry" />
        </mxCell>
        <mxCell id="ceyopC86vSADz4O9Ktu8-3" value="" style="line;strokeWidth=1;fillColor=none;align=left;verticalAlign=middle;spacingTop=-1;spacingLeft=3;spacingRight=3;rotatable=0;labelPosition=right;points=[];portConstraint=eastwest;strokeColor=inherit;" vertex="1" parent="ceyopC86vSADz4O9Ktu8-1">
          <mxGeometry y="120" width="500" height="8" as="geometry" />
        </mxCell>
        <mxCell id="ceyopC86vSADz4O9Ktu8-112" style="edgeStyle=none;curved=1;rounded=0;orthogonalLoop=1;jettySize=auto;html=1;fontSize=12;startSize=8;endSize=8;" edge="1" parent="ceyopC86vSADz4O9Ktu8-1" source="ceyopC86vSADz4O9Ktu8-4">
          <mxGeometry relative="1" as="geometry">
            <mxPoint x="-50" y="556" as="targetPoint" />
            <Array as="points">
              <mxPoint x="350" y="606" />
            </Array>
          </mxGeometry>
        </mxCell>
        <mxCell id="ceyopC86vSADz4O9Ktu8-4" value="&lt;div&gt;&lt;span style=&quot;background-color: transparent; color: light-dark(rgb(0, 0, 0), rgb(255, 255, 255));&quot;&gt;+ CreditCardPayment(String paymentID, double totalAmount, String timestamp, String customerID)&lt;/span&gt;&lt;/div&gt;&lt;div&gt;- determineCardType(String cardNumber): String&lt;/div&gt;&lt;div&gt;- generatePaymentSlip() : String&lt;/div&gt;&lt;div&gt;- getUserInput() : String&lt;/div&gt;&lt;div&gt;- isValidCardDetails() : boolean&lt;/div&gt;&lt;div&gt;+ normalizeCardNumber(String cardInput): String&lt;/div&gt;&lt;div&gt;+ normalizeExpiry Date(String expiryInput) : String&lt;/div&gt;&lt;div&gt;+ processPayment() ↑ Payment&lt;/div&gt;" style="text;strokeColor=none;fillColor=none;align=left;verticalAlign=top;spacingLeft=4;spacingRight=4;overflow=hidden;rotatable=0;points=[[0,0.5],[1,0.5]];portConstraint=eastwest;whiteSpace=wrap;html=1;" vertex="1" parent="ceyopC86vSADz4O9Ktu8-1">
          <mxGeometry y="128" width="500" height="142" as="geometry" />
        </mxCell>
        <mxCell id="ceyopC86vSADz4O9Ktu8-6" value="CreditCardPaymentProcessor" style="swimlane;fontStyle=1;align=center;verticalAlign=top;childLayout=stackLayout;horizontal=1;startSize=26;horizontalStack=0;resizeParent=1;resizeParentMax=0;resizeLast=0;collapsible=1;marginBottom=0;whiteSpace=wrap;html=1;" vertex="1" parent="1">
          <mxGeometry x="2100" y="4290" width="340" height="358" as="geometry" />
        </mxCell>
        <mxCell id="ceyopC86vSADz4O9Ktu8-7" value="&lt;div&gt;- cardHolderName: String&lt;/div&gt;&lt;div&gt;- cardNumber: String&lt;/div&gt;&lt;div&gt;- cardType: String &lt;br&gt;- cvv: String&lt;/div&gt;&lt;div&gt;- expiryDate: String &lt;br&gt;- paymentStatus: String &lt;br&gt;- scanner : Scanner&lt;/div&gt;" style="text;strokeColor=none;fillColor=none;align=left;verticalAlign=top;spacingLeft=4;spacingRight=4;overflow=hidden;rotatable=0;points=[[0,0.5],[1,0.5]];portConstraint=eastwest;whiteSpace=wrap;html=1;" vertex="1" parent="ceyopC86vSADz4O9Ktu8-6">
          <mxGeometry y="26" width="340" height="114" as="geometry" />
        </mxCell>
        <mxCell id="ceyopC86vSADz4O9Ktu8-8" value="" style="line;strokeWidth=1;fillColor=none;align=left;verticalAlign=middle;spacingTop=-1;spacingLeft=3;spacingRight=3;rotatable=0;labelPosition=right;points=[];portConstraint=eastwest;strokeColor=inherit;" vertex="1" parent="ceyopC86vSADz4O9Ktu8-6">
          <mxGeometry y="140" width="340" height="8" as="geometry" />
        </mxCell>
        <mxCell id="ceyopC86vSADz4O9Ktu8-9" value="&lt;div&gt;+ CreditCardPaymentProcessor()&lt;/div&gt;&lt;div&gt;+ cancelPayment()&lt;/div&gt;&lt;div&gt;- determine CardType(String cardNumber) : String &lt;br&gt;+ getPaymentMethodName() : String&lt;/div&gt;&lt;div&gt;+ getPaymentStatus() : String&lt;/div&gt;&lt;div&gt;+ isInteractive(): boolean &lt;br&gt;- isValidCardDetails() : boolean&lt;/div&gt;&lt;div&gt;- normalizeCardNumber(String cardinput): String&lt;br&gt;- normalizeExpiry Date(String expiryInput): String &lt;br&gt;+ processPayment(double amount): PaymentResult &lt;br&gt;- readCVV(): String&lt;/div&gt;&lt;div&gt;- readCard HolderName() : String&lt;/div&gt;&lt;div&gt;- readCardNumber() : String&lt;/div&gt;&lt;div&gt;- readExpiry Date() : String&lt;/div&gt;&lt;div&gt;&lt;br&gt;&lt;/div&gt;" style="text;strokeColor=none;fillColor=none;align=left;verticalAlign=top;spacingLeft=4;spacingRight=4;overflow=hidden;rotatable=0;points=[[0,0.5],[1,0.5]];portConstraint=eastwest;whiteSpace=wrap;html=1;" vertex="1" parent="ceyopC86vSADz4O9Ktu8-6">
          <mxGeometry y="148" width="340" height="210" as="geometry" />
        </mxCell>
        <mxCell id="ceyopC86vSADz4O9Ktu8-10" value="Invoice" style="swimlane;fontStyle=1;align=center;verticalAlign=top;childLayout=stackLayout;horizontal=1;startSize=26;horizontalStack=0;resizeParent=1;resizeParentMax=0;resizeLast=0;collapsible=1;marginBottom=0;whiteSpace=wrap;html=1;" vertex="1" parent="1">
          <mxGeometry x="-330" y="4080" width="460" height="480" as="geometry" />
        </mxCell>
        <mxCell id="ceyopC86vSADz4O9Ktu8-11" value="&lt;div&gt;&lt;span style=&quot;background-color: transparent; color: light-dark(rgb(0, 0, 0), rgb(255, 255, 255));&quot;&gt;- customerID: String&lt;/span&gt;&lt;/div&gt;&lt;div&gt;- discount: double&lt;/div&gt;&lt;div&gt;- dueDate: String&lt;/div&gt;&lt;div&gt;- invoiceID: String&lt;/div&gt;&lt;div&gt;- issueDate: String&lt;/div&gt;&lt;div&gt;- itemList : List&amp;lt;String&amp;gt;&amp;nbsp;&lt;/div&gt;&lt;div&gt;- totalAmount: double&lt;/div&gt;&lt;div&gt;- vehicleID: String&lt;/div&gt;" style="text;strokeColor=none;fillColor=none;align=left;verticalAlign=top;spacingLeft=4;spacingRight=4;overflow=hidden;rotatable=0;points=[[0,0.5],[1,0.5]];portConstraint=eastwest;whiteSpace=wrap;html=1;" vertex="1" parent="ceyopC86vSADz4O9Ktu8-10">
          <mxGeometry y="26" width="460" height="134" as="geometry" />
        </mxCell>
        <mxCell id="ceyopC86vSADz4O9Ktu8-12" value="" style="line;strokeWidth=1;fillColor=none;align=left;verticalAlign=middle;spacingTop=-1;spacingLeft=3;spacingRight=3;rotatable=0;labelPosition=right;points=[];portConstraint=eastwest;strokeColor=inherit;" vertex="1" parent="ceyopC86vSADz4O9Ktu8-10">
          <mxGeometry y="160" width="460" height="8" as="geometry" />
        </mxCell>
        <mxCell id="ceyopC86vSADz4O9Ktu8-13" value="&lt;div&gt;+ Invoice()&lt;/div&gt;&lt;div&gt;+ Invoice(String invoiceID, String vehicleID, String customerID, String issueDate, String dueDate)&lt;/div&gt;&lt;div&gt;+ addItem(String itemName, double price)&lt;/div&gt;&lt;div&gt;+ applyDiscount(double discount)&lt;/div&gt;&lt;div&gt;+ calculateTotal(): double&lt;/div&gt;&lt;div&gt;+ getCustomerID(): String&lt;/div&gt;&lt;div&gt;+ getDiscount() : double&lt;/div&gt;&lt;div&gt;+ getDueDate(): String&lt;/div&gt;&lt;div&gt;+ getInvoiceID(): String&lt;/div&gt;&lt;div&gt;+ getlssueDate() : String&lt;/div&gt;&lt;div&gt;+ getltemList(): List&amp;lt;String&amp;gt;&lt;/div&gt;&lt;div&gt;+ getTotalAmount() : double&lt;/div&gt;&lt;div&gt;+ getVehicleID(): String&lt;/div&gt;&lt;div&gt;+ setCustomerID(String customerID)&lt;/div&gt;&lt;div&gt;+ setDiscount(double discount)&lt;/div&gt;&lt;div&gt;+ setDueDate(String dueDate)&lt;/div&gt;&lt;div&gt;+ setInvoiceID(String invoiceID)&lt;/div&gt;&lt;div&gt;+ setlssueDate(String issueDate)&lt;/div&gt;&lt;div&gt;+ setVehicleID(String vehicleID) &lt;br&gt;+ toString(): String ↑ Object&lt;/div&gt;" style="text;strokeColor=none;fillColor=none;align=left;verticalAlign=top;spacingLeft=4;spacingRight=4;overflow=hidden;rotatable=0;points=[[0,0.5],[1,0.5]];portConstraint=eastwest;whiteSpace=wrap;html=1;" vertex="1" parent="ceyopC86vSADz4O9Ktu8-10">
          <mxGeometry y="168" width="460" height="312" as="geometry" />
        </mxCell>
        <mxCell id="ceyopC86vSADz4O9Ktu8-14" value="OnlineBankingPayment" style="swimlane;fontStyle=1;align=center;verticalAlign=top;childLayout=stackLayout;horizontal=1;startSize=26;horizontalStack=0;resizeParent=1;resizeParentMax=0;resizeLast=0;collapsible=1;marginBottom=0;whiteSpace=wrap;html=1;" vertex="1" parent="1">
          <mxGeometry x="710" y="4244" width="520" height="330" as="geometry" />
        </mxCell>
        <mxCell id="ceyopC86vSADz4O9Ktu8-15" value="&lt;div&gt;&lt;span style=&quot;background-color: transparent; color: light-dark(rgb(0, 0, 0), rgb(255, 255, 255));&quot;&gt;- accountNumber: String&lt;/span&gt;&lt;/div&gt;&lt;div&gt;- bankName: String&lt;/div&gt;&lt;div&gt;- generatedOTP: String&lt;/div&gt;&lt;div&gt;- otpCode: String &lt;br&gt;- password: String &lt;br&gt;- scanner : Scanner&lt;/div&gt;&lt;div&gt;- username: String&lt;/div&gt;" style="text;strokeColor=none;fillColor=none;align=left;verticalAlign=top;spacingLeft=4;spacingRight=4;overflow=hidden;rotatable=0;points=[[0,0.5],[1,0.5]];portConstraint=eastwest;whiteSpace=wrap;html=1;" vertex="1" parent="ceyopC86vSADz4O9Ktu8-14">
          <mxGeometry y="26" width="520" height="114" as="geometry" />
        </mxCell>
        <mxCell id="ceyopC86vSADz4O9Ktu8-16" value="" style="line;strokeWidth=1;fillColor=none;align=left;verticalAlign=middle;spacingTop=-1;spacingLeft=3;spacingRight=3;rotatable=0;labelPosition=right;points=[];portConstraint=eastwest;strokeColor=inherit;" vertex="1" parent="ceyopC86vSADz4O9Ktu8-14">
          <mxGeometry y="140" width="520" height="8" as="geometry" />
        </mxCell>
        <mxCell id="ceyopC86vSADz4O9Ktu8-17" value="&lt;div&gt;+ OnlineBankingPayment(String paymentID, double totalAmount, String timestamp, String customerID) &lt;br&gt;- generateOTP(): String&lt;/div&gt;&lt;div&gt;- generatePaymentSlip() : String&lt;/div&gt;&lt;div&gt;- getBankName(int choice) : String&lt;/div&gt;&lt;div&gt;- getMaskedInput(): String&lt;/div&gt;&lt;div&gt;- getUserInput() : String&lt;/div&gt;&lt;div&gt;+ normalizeUsername(String usernameInput) : String&lt;/div&gt;&lt;div&gt;+ processPayment() ↑ Payment&lt;/div&gt;&lt;div&gt;- verifyCredentials() : boolean&lt;/div&gt;&lt;div&gt;- verifyOTP(): boolean&lt;/div&gt;" style="text;strokeColor=none;fillColor=none;align=left;verticalAlign=top;spacingLeft=4;spacingRight=4;overflow=hidden;rotatable=0;points=[[0,0.5],[1,0.5]];portConstraint=eastwest;whiteSpace=wrap;html=1;" vertex="1" parent="ceyopC86vSADz4O9Ktu8-14">
          <mxGeometry y="148" width="520" height="182" as="geometry" />
        </mxCell>
        <mxCell id="ceyopC86vSADz4O9Ktu8-18" value="Payment" style="swimlane;fontStyle=1;align=center;verticalAlign=top;childLayout=stackLayout;horizontal=1;startSize=26;horizontalStack=0;resizeParent=1;resizeParentMax=0;resizeLast=0;collapsible=1;marginBottom=0;whiteSpace=wrap;html=1;" vertex="1" parent="1">
          <mxGeometry x="890" y="3560" width="470" height="420" as="geometry" />
        </mxCell>
        <mxCell id="ceyopC86vSADz4O9Ktu8-19" value="# customerID: String&lt;br&gt;# paymentID: String&lt;br&gt;# paymentMethod: String&lt;br&gt;# paymentSlip: String&lt;br&gt;# paymentStatus: String&lt;br&gt;# referenceNumber : String&lt;br&gt;# timestamp: String&lt;br&gt;# totalAmount: double" style="text;strokeColor=none;fillColor=none;align=left;verticalAlign=top;spacingLeft=4;spacingRight=4;overflow=hidden;rotatable=0;points=[[0,0.5],[1,0.5]];portConstraint=eastwest;whiteSpace=wrap;html=1;" vertex="1" parent="ceyopC86vSADz4O9Ktu8-18">
          <mxGeometry y="26" width="470" height="134" as="geometry" />
        </mxCell>
        <mxCell id="ceyopC86vSADz4O9Ktu8-20" value="" style="line;strokeWidth=1;fillColor=none;align=left;verticalAlign=middle;spacingTop=-1;spacingLeft=3;spacingRight=3;rotatable=0;labelPosition=right;points=[];portConstraint=eastwest;strokeColor=inherit;" vertex="1" parent="ceyopC86vSADz4O9Ktu8-18">
          <mxGeometry y="160" width="470" height="8" as="geometry" />
        </mxCell>
        <mxCell id="ceyopC86vSADz4O9Ktu8-21" value="+ Payment(String paymentID, double totalAmount, String paymentMethod, String paymentStatus, String timestamp, String customerID)&lt;br&gt;+ createPayment(String paymentType, String paymentID, double totalAmount, String timestamp, String customerID): Payment&amp;nbsp;&lt;div&gt;- generateReferenceNumber(): String&lt;br&gt;+ getCustomerID() : String&lt;br&gt;+ getPaymentDetails() : String&lt;br&gt;+ getPaymentID(): String&lt;br&gt;+ getPaymentMethod(): String&lt;br&gt;+ getPaymentSlip() : String&lt;br&gt;+ getPaymentStatus() : String&lt;br&gt;+ getReferenceNumber() : String&lt;br&gt;+ getTimestamp(): String&lt;br&gt;+ getTotalAmount() : double&lt;br&gt;+ processPayment()&lt;br&gt;+ refundPayment()&lt;br&gt;+ updateStatus(String newStatus)&lt;/div&gt;" style="text;strokeColor=none;fillColor=none;align=left;verticalAlign=top;spacingLeft=4;spacingRight=4;overflow=hidden;rotatable=0;points=[[0,0.5],[1,0.5]];portConstraint=eastwest;whiteSpace=wrap;html=1;" vertex="1" parent="ceyopC86vSADz4O9Ktu8-18">
          <mxGeometry y="168" width="470" height="252" as="geometry" />
        </mxCell>
        <mxCell id="ceyopC86vSADz4O9Ktu8-26" value="«interface»&lt;br&gt;PaymentProcessor&lt;br&gt;+ cancelPayment()&lt;br&gt;+ getPaymentMethodName() : String&lt;br&gt;+ getPaymentStatus() : String&lt;br&gt;+ isInteractive() : boolean&lt;br&gt;+ processPayment(double amount) : Payment Result&lt;div&gt;+ validateAmount(double amount) : boolean&lt;br&gt;&lt;div&gt;&lt;br&gt;&lt;/div&gt;&lt;/div&gt;" style="html=1;whiteSpace=wrap;" vertex="1" parent="1">
          <mxGeometry x="1990" y="3940" width="310" height="139" as="geometry" />
        </mxCell>
        <mxCell id="ceyopC86vSADz4O9Ktu8-27" value="PaymentResult" style="swimlane;fontStyle=1;align=center;verticalAlign=top;childLayout=stackLayout;horizontal=1;startSize=26;horizontalStack=0;resizeParent=1;resizeParentMax=0;resizeLast=0;collapsible=1;marginBottom=0;whiteSpace=wrap;html=1;" vertex="1" parent="1">
          <mxGeometry x="680" y="4710" width="550" height="270" as="geometry" />
        </mxCell>
        <mxCell id="ceyopC86vSADz4O9Ktu8-28" value="- amount: double&lt;br&gt;- errorMessage: String&lt;br&gt;- paymentMethod: String&lt;br&gt;- successful: boolean&lt;br&gt;- transactionld: String" style="text;strokeColor=none;fillColor=none;align=left;verticalAlign=top;spacingLeft=4;spacingRight=4;overflow=hidden;rotatable=0;points=[[0,0.5],[1,0.5]];portConstraint=eastwest;whiteSpace=wrap;html=1;" vertex="1" parent="ceyopC86vSADz4O9Ktu8-27">
          <mxGeometry y="26" width="550" height="84" as="geometry" />
        </mxCell>
        <mxCell id="ceyopC86vSADz4O9Ktu8-29" value="" style="line;strokeWidth=1;fillColor=none;align=left;verticalAlign=middle;spacingTop=-1;spacingLeft=3;spacingRight=3;rotatable=0;labelPosition=right;points=[];portConstraint=eastwest;strokeColor=inherit;" vertex="1" parent="ceyopC86vSADz4O9Ktu8-27">
          <mxGeometry y="110" width="550" height="8" as="geometry" />
        </mxCell>
        <mxCell id="ceyopC86vSADz4O9Ktu8-30" value="+PaymentResult(boolean successful, String errorMessage, String transactionld, double amount, String paymentMethod) &lt;br&gt;+failure(String errorMessage, double amount, String paymentMethod): PaymentResult&lt;br&gt;+ getAmount(): double&lt;br&gt;+ getErrorMessage() : String&lt;br&gt;+ getPaymentMethod(): String&lt;br&gt;+ getTransactionld() : String&lt;br&gt;+ isSuccessful(): boolean&lt;br&gt;+ success(String transactionld, double amount, String paymentMethod): PaymentResult&lt;br&gt;+ toString(): String ↑ Object" style="text;strokeColor=none;fillColor=none;align=left;verticalAlign=top;spacingLeft=4;spacingRight=4;overflow=hidden;rotatable=0;points=[[0,0.5],[1,0.5]];portConstraint=eastwest;whiteSpace=wrap;html=1;" vertex="1" parent="ceyopC86vSADz4O9Ktu8-27">
          <mxGeometry y="118" width="550" height="152" as="geometry" />
        </mxCell>
        <mxCell id="ceyopC86vSADz4O9Ktu8-31" value="TransactionManager" style="swimlane;fontStyle=1;align=center;verticalAlign=top;childLayout=stackLayout;horizontal=1;startSize=26;horizontalStack=0;resizeParent=1;resizeParentMax=0;resizeLast=0;collapsible=1;marginBottom=0;whiteSpace=wrap;html=1;" vertex="1" parent="1">
          <mxGeometry x="300" y="3734" width="470" height="240" as="geometry" />
        </mxCell>
        <mxCell id="ceyopC86vSADz4O9Ktu8-32" value="&amp;nbsp;paymentDAO: PaymentDAO totalEarnings: double&lt;br&gt;transactionList : List&amp;lt;Payment&amp;gt;&lt;br&gt;transactionLock: Object&lt;br&gt;transactionManagerID: String" style="text;strokeColor=none;fillColor=none;align=left;verticalAlign=top;spacingLeft=4;spacingRight=4;overflow=hidden;rotatable=0;points=[[0,0.5],[1,0.5]];portConstraint=eastwest;whiteSpace=wrap;html=1;" vertex="1" parent="ceyopC86vSADz4O9Ktu8-31">
          <mxGeometry y="26" width="470" height="74" as="geometry" />
        </mxCell>
        <mxCell id="ceyopC86vSADz4O9Ktu8-33" value="" style="line;strokeWidth=1;fillColor=none;align=left;verticalAlign=middle;spacingTop=-1;spacingLeft=3;spacingRight=3;rotatable=0;labelPosition=right;points=[];portConstraint=eastwest;strokeColor=inherit;" vertex="1" parent="ceyopC86vSADz4O9Ktu8-31">
          <mxGeometry y="100" width="470" height="8" as="geometry" />
        </mxCell>
        <mxCell id="ceyopC86vSADz4O9Ktu8-34" value="+ TransactionManager(String transactionManagerID) &lt;br&gt;- calculateTotalEarnings() &lt;br&gt;+getTotalEarnings(): double&lt;br&gt;+getTransactionByID(String paymentID): Payment &lt;br&gt;+ getTransactionList(): List&amp;lt;Payment&amp;gt; &lt;br&gt;+ getTransactionManagerID(): String&lt;br&gt;+ getTransactionSummary(): String &lt;br&gt;+ recordTransaction (Payment payment)" style="text;strokeColor=none;fillColor=none;align=left;verticalAlign=top;spacingLeft=4;spacingRight=4;overflow=hidden;rotatable=0;points=[[0,0.5],[1,0.5]];portConstraint=eastwest;whiteSpace=wrap;html=1;" vertex="1" parent="ceyopC86vSADz4O9Ktu8-31">
          <mxGeometry y="108" width="470" height="132" as="geometry" />
        </mxCell>
        <mxCell id="ceyopC86vSADz4O9Ktu8-35" value="Rental" style="swimlane;fontStyle=1;align=center;verticalAlign=top;childLayout=stackLayout;horizontal=1;startSize=26;horizontalStack=0;resizeParent=1;resizeParentMax=0;resizeLast=0;collapsible=1;marginBottom=0;whiteSpace=wrap;html=1;" vertex="1" parent="1">
          <mxGeometry x="-590" y="2590" width="340" height="250" as="geometry" />
        </mxCell>
        <mxCell id="ceyopC86vSADz4O9Ktu8-36" value="- customerld: int&lt;br&gt;- endDate: LocalDate&lt;br&gt;- paymentStatus: String&lt;br&gt;- rentalld: int&lt;br&gt;- startDate: LocalDate&lt;br&gt;- status: String&lt;br&gt;- totalCost: double&lt;br&gt;- vehicleld: int" style="text;strokeColor=none;fillColor=none;align=left;verticalAlign=top;spacingLeft=4;spacingRight=4;overflow=hidden;rotatable=0;points=[[0,0.5],[1,0.5]];portConstraint=eastwest;whiteSpace=wrap;html=1;" vertex="1" parent="ceyopC86vSADz4O9Ktu8-35">
          <mxGeometry y="26" width="340" height="134" as="geometry" />
        </mxCell>
        <mxCell id="ceyopC86vSADz4O9Ktu8-37" value="" style="line;strokeWidth=1;fillColor=none;align=left;verticalAlign=middle;spacingTop=-1;spacingLeft=3;spacingRight=3;rotatable=0;labelPosition=right;points=[];portConstraint=eastwest;strokeColor=inherit;" vertex="1" parent="ceyopC86vSADz4O9Ktu8-35">
          <mxGeometry y="160" width="340" height="8" as="geometry" />
        </mxCell>
        <mxCell id="ceyopC86vSADz4O9Ktu8-38" value="+ Rental(int rentalld, int customerld, int vehicleld, LocalDate startDate, LocalDate endDate, double totalCost)&amp;nbsp;&lt;br&gt;+ getters&lt;br&gt;+ setters&lt;br&gt;+ toString(): String ↑ Object" style="text;strokeColor=none;fillColor=none;align=left;verticalAlign=top;spacingLeft=4;spacingRight=4;overflow=hidden;rotatable=0;points=[[0,0.5],[1,0.5]];portConstraint=eastwest;whiteSpace=wrap;html=1;" vertex="1" parent="ceyopC86vSADz4O9Ktu8-35">
          <mxGeometry y="168" width="340" height="82" as="geometry" />
        </mxCell>
        <mxCell id="ceyopC86vSADz4O9Ktu8-39" value="RentalManager" style="swimlane;fontStyle=1;align=center;verticalAlign=top;childLayout=stackLayout;horizontal=1;startSize=26;horizontalStack=0;resizeParent=1;resizeParentMax=0;resizeLast=0;collapsible=1;marginBottom=0;whiteSpace=wrap;html=1;" vertex="1" parent="1">
          <mxGeometry x="-1370" y="2680" width="600" height="320" as="geometry" />
        </mxCell>
        <mxCell id="ceyopC86vSADz4O9Ktu8-40" value="authenticatedManager: Manager&lt;br&gt;rentalDAO: RentalDAO" style="text;strokeColor=none;fillColor=none;align=left;verticalAlign=top;spacingLeft=4;spacingRight=4;overflow=hidden;rotatable=0;points=[[0,0.5],[1,0.5]];portConstraint=eastwest;whiteSpace=wrap;html=1;" vertex="1" parent="ceyopC86vSADz4O9Ktu8-39">
          <mxGeometry y="26" width="600" height="34" as="geometry" />
        </mxCell>
        <mxCell id="ceyopC86vSADz4O9Ktu8-41" value="" style="line;strokeWidth=1;fillColor=none;align=left;verticalAlign=middle;spacingTop=-1;spacingLeft=3;spacingRight=3;rotatable=0;labelPosition=right;points=[];portConstraint=eastwest;strokeColor=inherit;" vertex="1" parent="ceyopC86vSADz4O9Ktu8-39">
          <mxGeometry y="60" width="600" height="8" as="geometry" />
        </mxCell>
        <mxCell id="ceyopC86vSADz4O9Ktu8-92" style="edgeStyle=none;curved=1;rounded=0;orthogonalLoop=1;jettySize=auto;html=1;fontSize=12;startSize=8;endSize=8;fillColor=#6a00ff;strokeColor=#3700CC;" edge="1" parent="ceyopC86vSADz4O9Ktu8-39">
          <mxGeometry relative="1" as="geometry">
            <mxPoint x="720" y="-419.99721311475287" as="sourcePoint" />
            <mxPoint x="-880" y="910" as="targetPoint" />
            <Array as="points">
              <mxPoint x="-930" y="-580" />
            </Array>
          </mxGeometry>
        </mxCell>
        <mxCell id="ceyopC86vSADz4O9Ktu8-42" value="+ RentalManager()&lt;br&gt;+ RentalManager (Manager manager)&lt;br&gt;+ addRental (int customerld, int vehicleld, LocalDate startDate, LocalDate endDate, double totalCost)&lt;br&gt;+ addRentalWithId(int rentalld, int customerld, int vehicleld, LocalDate startDate, LocalDate endDate, double totalCost) &lt;br&gt;+ calculate TotalCost(LocalDate startDate, LocalDate endDate, double dailyRate): double&lt;br&gt;+ deleteRental(int rentalld)&lt;br&gt;+ findRentalsByPaymentReference(String reference Number, PaymentDAO paymentDAO): List&amp;lt;Rental&amp;gt;&lt;br&gt;+ getAllRentals(): List&amp;lt;Rental&amp;gt;&lt;br&gt;+ getAuthenticatedManager() : Manager&lt;br&gt;- getManagerName() : String&lt;br&gt;+ getRentalByld(int rentalld) : Rental&lt;br&gt;+ getRentalsByCustomer(int customerld): List&amp;lt;Rental&amp;gt;&lt;br&gt;+ getRentalsByVehicle (int vehicleld): List&amp;lt;Rental&amp;gt;&lt;br&gt;- hasPermission(String action): boolean&lt;br&gt;- sAuthenticated() : boolean&lt;br&gt;- updateRental(Rental rental)" style="text;strokeColor=none;fillColor=none;align=left;verticalAlign=top;spacingLeft=4;spacingRight=4;overflow=hidden;rotatable=0;points=[[0,0.5],[1,0.5]];portConstraint=eastwest;whiteSpace=wrap;html=1;" vertex="1" parent="ceyopC86vSADz4O9Ktu8-39">
          <mxGeometry y="68" width="600" height="252" as="geometry" />
        </mxCell>
        <mxCell id="ceyopC86vSADz4O9Ktu8-43" value="Buggy" style="swimlane;fontStyle=1;align=center;verticalAlign=top;childLayout=stackLayout;horizontal=1;startSize=26;horizontalStack=0;resizeParent=1;resizeParentMax=0;resizeLast=0;collapsible=1;marginBottom=0;whiteSpace=wrap;html=1;" vertex="1" parent="1">
          <mxGeometry x="-240" y="3680" width="350" height="70" as="geometry" />
        </mxCell>
        <mxCell id="ceyopC86vSADz4O9Ktu8-44" value="+ Buggy(String vehicleID, String vehicleModel, double modelPricing, String vehicleCon, boolean available)" style="text;strokeColor=none;fillColor=none;align=left;verticalAlign=top;spacingLeft=4;spacingRight=4;overflow=hidden;rotatable=0;points=[[0,0.5],[1,0.5]];portConstraint=eastwest;whiteSpace=wrap;html=1;" vertex="1" parent="ceyopC86vSADz4O9Ktu8-43">
          <mxGeometry y="26" width="350" height="44" as="geometry" />
        </mxCell>
        <mxCell id="ceyopC86vSADz4O9Ktu8-47" value="Crossover" style="swimlane;fontStyle=1;align=center;verticalAlign=top;childLayout=stackLayout;horizontal=1;startSize=26;horizontalStack=0;resizeParent=1;resizeParentMax=0;resizeLast=0;collapsible=1;marginBottom=0;whiteSpace=wrap;html=1;" vertex="1" parent="1">
          <mxGeometry x="-890" y="3510" width="350" height="70" as="geometry" />
        </mxCell>
        <mxCell id="ceyopC86vSADz4O9Ktu8-48" value="+ Buggy(String vehicleID, String vehicleModel, double modelPricing, String vehicleCon, boolean available)" style="text;strokeColor=none;fillColor=none;align=left;verticalAlign=top;spacingLeft=4;spacingRight=4;overflow=hidden;rotatable=0;points=[[0,0.5],[1,0.5]];portConstraint=eastwest;whiteSpace=wrap;html=1;" vertex="1" parent="ceyopC86vSADz4O9Ktu8-47">
          <mxGeometry y="26" width="350" height="44" as="geometry" />
        </mxCell>
        <mxCell id="ceyopC86vSADz4O9Ktu8-49" value="DirtBike" style="swimlane;fontStyle=1;align=center;verticalAlign=top;childLayout=stackLayout;horizontal=1;startSize=26;horizontalStack=0;resizeParent=1;resizeParentMax=0;resizeLast=0;collapsible=1;marginBottom=0;whiteSpace=wrap;html=1;" vertex="1" parent="1">
          <mxGeometry x="-690" y="3680" width="350" height="70" as="geometry" />
        </mxCell>
        <mxCell id="ceyopC86vSADz4O9Ktu8-50" value="+ Buggy(String vehicleID, String vehicleModel, double modelPricing, String vehicleCon, boolean available)" style="text;strokeColor=none;fillColor=none;align=left;verticalAlign=top;spacingLeft=4;spacingRight=4;overflow=hidden;rotatable=0;points=[[0,0.5],[1,0.5]];portConstraint=eastwest;whiteSpace=wrap;html=1;" vertex="1" parent="ceyopC86vSADz4O9Ktu8-49">
          <mxGeometry y="26" width="350" height="44" as="geometry" />
        </mxCell>
        <mxCell id="ceyopC86vSADz4O9Ktu8-51" value="MountainBike" style="swimlane;fontStyle=1;align=center;verticalAlign=top;childLayout=stackLayout;horizontal=1;startSize=26;horizontalStack=0;resizeParent=1;resizeParentMax=0;resizeLast=0;collapsible=1;marginBottom=0;whiteSpace=wrap;html=1;" vertex="1" parent="1">
          <mxGeometry x="60" y="3490" width="350" height="70" as="geometry" />
        </mxCell>
        <mxCell id="ceyopC86vSADz4O9Ktu8-52" value="+ Buggy(String vehicleID, String vehicleModel, double modelPricing, String vehicleCon, boolean available)" style="text;strokeColor=none;fillColor=none;align=left;verticalAlign=top;spacingLeft=4;spacingRight=4;overflow=hidden;rotatable=0;points=[[0,0.5],[1,0.5]];portConstraint=eastwest;whiteSpace=wrap;html=1;" vertex="1" parent="ceyopC86vSADz4O9Ktu8-51">
          <mxGeometry y="26" width="350" height="44" as="geometry" />
        </mxCell>
        <mxCell id="ceyopC86vSADz4O9Ktu8-53" value="Vehicle" style="swimlane;fontStyle=1;align=center;verticalAlign=top;childLayout=stackLayout;horizontal=1;startSize=26;horizontalStack=0;resizeParent=1;resizeParentMax=0;resizeLast=0;collapsible=1;marginBottom=0;whiteSpace=wrap;html=1;" vertex="1" parent="1">
          <mxGeometry x="-515" y="3120" width="490" height="340" as="geometry" />
        </mxCell>
        <mxCell id="ceyopC86vSADz4O9Ktu8-54" value="-&amp;nbsp; available: boolean&lt;br&gt;-&amp;nbsp; modelPricing: double&lt;br&gt;-&amp;nbsp; vehicleCon: String &lt;br&gt;- vehicleID: String&lt;br&gt;- vehicleModel: String&lt;br&gt;- vehicleType: String" style="text;strokeColor=none;fillColor=none;align=left;verticalAlign=top;spacingLeft=4;spacingRight=4;overflow=hidden;rotatable=0;points=[[0,0.5],[1,0.5]];portConstraint=eastwest;whiteSpace=wrap;html=1;" vertex="1" parent="ceyopC86vSADz4O9Ktu8-53">
          <mxGeometry y="26" width="490" height="104" as="geometry" />
        </mxCell>
        <mxCell id="ceyopC86vSADz4O9Ktu8-55" value="" style="line;strokeWidth=1;fillColor=none;align=left;verticalAlign=middle;spacingTop=-1;spacingLeft=3;spacingRight=3;rotatable=0;labelPosition=right;points=[];portConstraint=eastwest;strokeColor=inherit;" vertex="1" parent="ceyopC86vSADz4O9Ktu8-53">
          <mxGeometry y="130" width="490" height="8" as="geometry" />
        </mxCell>
        <mxCell id="ceyopC86vSADz4O9Ktu8-56" value="+ Vehicle(String vehicleID, String vehicleType, String vehicleModel, double modelPricing, String vehicleCon, boolean available)&lt;br&gt;+ displayPricing()&lt;br&gt;+ getAvailable (List&amp;lt;Vehicle&amp;gt; vehicles): List&amp;lt;Vehicle&amp;gt;&lt;br&gt;+ getModelPricing(): double&lt;br&gt;+ getVehicleCon(): String getVehicleDetails()&lt;br&gt;+ getVehicleID(): String&lt;br&gt;+ getVehicleModel() : String getVehicleType(): String&amp;nbsp;&lt;div&gt;+ isAvailable(): boolean&lt;br&gt;+ returnVehicle()&lt;br&gt;+ setAvailable (boolean available)&lt;br&gt;+ setModelPricing(double modelPricing)&amp;nbsp;&lt;br&gt;+ updateCondition (String newCondition)&lt;/div&gt;" style="text;strokeColor=none;fillColor=none;align=left;verticalAlign=top;spacingLeft=4;spacingRight=4;overflow=hidden;rotatable=0;points=[[0,0.5],[1,0.5]];portConstraint=eastwest;whiteSpace=wrap;html=1;" vertex="1" parent="ceyopC86vSADz4O9Ktu8-53">
          <mxGeometry y="138" width="490" height="202" as="geometry" />
        </mxCell>
        <mxCell id="ceyopC86vSADz4O9Ktu8-57" value="VehicleManager" style="swimlane;fontStyle=1;align=center;verticalAlign=top;childLayout=stackLayout;horizontal=1;startSize=26;horizontalStack=0;resizeParent=1;resizeParentMax=0;resizeLast=0;collapsible=1;marginBottom=0;whiteSpace=wrap;html=1;" vertex="1" parent="1">
          <mxGeometry x="-1310" y="3090" width="460" height="380" as="geometry" />
        </mxCell>
        <mxCell id="ceyopC86vSADz4O9Ktu8-58" value="- authenticatedManager: Manager&lt;br&gt;- authorizeLv: int&lt;br&gt;- changeCount : int&lt;br&gt;- managerID: String&lt;br&gt;- managerName: String&lt;br&gt;- modifierRules : int&lt;br&gt;- vehicleDAO: VehicleDAO&lt;br&gt;- vehicleLock: Object&lt;br&gt;- vehicles: List&amp;lt;Vehicle&amp;gt;" style="text;strokeColor=none;fillColor=none;align=left;verticalAlign=top;spacingLeft=4;spacingRight=4;overflow=hidden;rotatable=0;points=[[0,0.5],[1,0.5]];portConstraint=eastwest;whiteSpace=wrap;html=1;" vertex="1" parent="ceyopC86vSADz4O9Ktu8-57">
          <mxGeometry y="26" width="460" height="144" as="geometry" />
        </mxCell>
        <mxCell id="ceyopC86vSADz4O9Ktu8-59" value="" style="line;strokeWidth=1;fillColor=none;align=left;verticalAlign=middle;spacingTop=-1;spacingLeft=3;spacingRight=3;rotatable=0;labelPosition=right;points=[];portConstraint=eastwest;strokeColor=inherit;" vertex="1" parent="ceyopC86vSADz4O9Ktu8-57">
          <mxGeometry y="170" width="460" height="8" as="geometry" />
        </mxCell>
        <mxCell id="ceyopC86vSADz4O9Ktu8-60" value="+ VehicleManager (Manager manager)&lt;br&gt;+ VehicleManager(String managerID, int authorizeLv, String managerName, int modifierRules)&lt;br&gt;+ addVehicle(Vehicle newVehicle)&lt;br&gt;+ getAllVehicles(): List&amp;lt;Vehicle&amp;gt;&lt;br&gt;+ getAuthorizeLevel(): String getManagerDetails()&lt;br&gt;- hasPermission(String action): boolean&lt;br&gt;+ remove Vehicle(String vehicleID)&lt;br&gt;+ resetChangeCount()&lt;br&gt;+ setAuthorization (int requiredAuthLevel)&lt;br&gt;+ setVehicleAvailability(String vehicleID, boolean available)&lt;br&gt;+ setVehicleDetails(String vehicleID, String newDetails) &lt;br&gt;+ setVehiclePricing(String vehicleID, double newPrice)&amp;nbsp;" style="text;strokeColor=none;fillColor=none;align=left;verticalAlign=top;spacingLeft=4;spacingRight=4;overflow=hidden;rotatable=0;points=[[0,0.5],[1,0.5]];portConstraint=eastwest;whiteSpace=wrap;html=1;" vertex="1" parent="ceyopC86vSADz4O9Ktu8-57">
          <mxGeometry y="178" width="460" height="202" as="geometry" />
        </mxCell>
        <mxCell id="ceyopC86vSADz4O9Ktu8-62" value="Extends" style="endArrow=block;endSize=16;endFill=0;html=1;rounded=0;fontSize=12;curved=1;entryX=0.52;entryY=-0.043;entryDx=0;entryDy=0;entryPerimeter=0;" edge="1" parent="1" target="ceyopC86vSADz4O9Ktu8-47">
          <mxGeometry x="-0.3575" y="53" width="160" relative="1" as="geometry">
            <mxPoint x="-520" y="3280" as="sourcePoint" />
            <mxPoint x="-715" y="3490" as="targetPoint" />
            <Array as="points">
              <mxPoint x="-780" y="3260" />
            </Array>
            <mxPoint as="offset" />
          </mxGeometry>
        </mxCell>
        <mxCell id="ceyopC86vSADz4O9Ktu8-63" value="Extends" style="endArrow=block;endSize=16;endFill=0;html=1;rounded=0;fontSize=12;curved=1;" edge="1" parent="1" target="ceyopC86vSADz4O9Ktu8-49">
          <mxGeometry width="160" relative="1" as="geometry">
            <mxPoint x="-440" y="3460" as="sourcePoint" />
            <mxPoint x="-280" y="3460" as="targetPoint" />
          </mxGeometry>
        </mxCell>
        <mxCell id="ceyopC86vSADz4O9Ktu8-64" value="Extends" style="endArrow=block;endSize=16;endFill=0;html=1;rounded=0;fontSize=12;curved=1;entryX=0.5;entryY=0;entryDx=0;entryDy=0;exitX=0.657;exitY=1.02;exitDx=0;exitDy=0;exitPerimeter=0;" edge="1" parent="1" source="ceyopC86vSADz4O9Ktu8-56" target="ceyopC86vSADz4O9Ktu8-43">
          <mxGeometry width="160" relative="1" as="geometry">
            <mxPoint x="-260" y="3480" as="sourcePoint" />
            <mxPoint x="-100" y="3480" as="targetPoint" />
          </mxGeometry>
        </mxCell>
        <mxCell id="ceyopC86vSADz4O9Ktu8-65" value="Extends" style="endArrow=block;endSize=16;endFill=0;html=1;rounded=0;fontSize=12;curved=1;entryX=0.543;entryY=-0.057;entryDx=0;entryDy=0;entryPerimeter=0;" edge="1" parent="1">
          <mxGeometry x="0.4235" y="-64" width="160" relative="1" as="geometry">
            <mxPoint x="-30" y="3270" as="sourcePoint" />
            <mxPoint x="220.0500000000011" y="3486.01" as="targetPoint" />
            <Array as="points">
              <mxPoint x="270" y="3250" />
            </Array>
            <mxPoint as="offset" />
          </mxGeometry>
        </mxCell>
        <mxCell id="ceyopC86vSADz4O9Ktu8-66" value="1" style="endArrow=open;html=1;endSize=12;startArrow=diamondThin;startSize=14;startFill=1;edgeStyle=orthogonalEdgeStyle;align=left;verticalAlign=bottom;rounded=0;fontSize=12;curved=1;entryX=0.001;entryY=0.418;entryDx=0;entryDy=0;entryPerimeter=0;" edge="1" parent="1" target="ceyopC86vSADz4O9Ktu8-54">
          <mxGeometry x="-1" y="3" relative="1" as="geometry">
            <mxPoint x="-850" y="3190" as="sourcePoint" />
            <mxPoint x="-690" y="3190" as="targetPoint" />
          </mxGeometry>
        </mxCell>
        <mxCell id="ceyopC86vSADz4O9Ktu8-67" value="1" style="endArrow=open;html=1;endSize=12;startArrow=diamondThin;startSize=14;startFill=1;edgeStyle=orthogonalEdgeStyle;align=left;verticalAlign=bottom;rounded=0;fontSize=12;curved=1;entryX=0.005;entryY=0.95;entryDx=0;entryDy=0;entryPerimeter=0;exitX=1;exitY=0.5;exitDx=0;exitDy=0;" edge="1" parent="1" source="ceyopC86vSADz4O9Ktu8-42" target="ceyopC86vSADz4O9Ktu8-36">
          <mxGeometry x="-1" y="3" relative="1" as="geometry">
            <mxPoint x="-820" y="2590" as="sourcePoint" />
            <mxPoint x="-660" y="2590" as="targetPoint" />
          </mxGeometry>
        </mxCell>
        <mxCell id="ceyopC86vSADz4O9Ktu8-68" value="1" style="endArrow=open;html=1;endSize=12;startArrow=diamondThin;startSize=14;startFill=1;edgeStyle=orthogonalEdgeStyle;align=left;verticalAlign=bottom;rounded=0;fontSize=12;curved=1;entryX=0;entryY=0.5;entryDx=0;entryDy=0;" edge="1" parent="1" target="ceyopC86vSADz4O9Ktu8-21">
          <mxGeometry x="-1" y="3" relative="1" as="geometry">
            <mxPoint x="770" y="3854" as="sourcePoint" />
            <mxPoint x="930" y="3854" as="targetPoint" />
          </mxGeometry>
        </mxCell>
        <mxCell id="ceyopC86vSADz4O9Ktu8-71" value="Extends" style="endArrow=block;endSize=16;endFill=0;html=1;rounded=0;fontSize=12;curved=1;entryX=0.5;entryY=0;entryDx=0;entryDy=0;exitX=0.241;exitY=1.013;exitDx=0;exitDy=0;exitPerimeter=0;" edge="1" parent="1" source="ceyopC86vSADz4O9Ktu8-21" target="6XG5QplGx-Yt1XKf_cvf-62">
          <mxGeometry x="-0.0349" y="18" width="160" relative="1" as="geometry">
            <mxPoint x="1100" y="4134" as="sourcePoint" />
            <mxPoint x="1140" y="4074" as="targetPoint" />
            <Array as="points">
              <mxPoint x="780" y="4114" />
            </Array>
            <mxPoint as="offset" />
          </mxGeometry>
        </mxCell>
        <mxCell id="ceyopC86vSADz4O9Ktu8-72" value="Extends" style="endArrow=block;endSize=16;endFill=0;html=1;rounded=0;fontSize=12;curved=1;entryX=0.5;entryY=0;entryDx=0;entryDy=0;" edge="1" parent="1" source="ceyopC86vSADz4O9Ktu8-21" target="ceyopC86vSADz4O9Ktu8-14">
          <mxGeometry width="160" relative="1" as="geometry">
            <mxPoint x="1190" y="4094" as="sourcePoint" />
            <mxPoint x="1350" y="4094" as="targetPoint" />
          </mxGeometry>
        </mxCell>
        <mxCell id="ceyopC86vSADz4O9Ktu8-73" value="Extends" style="endArrow=block;endSize=16;endFill=0;html=1;rounded=0;fontSize=12;curved=1;entryX=0.5;entryY=0;entryDx=0;entryDy=0;exitX=0.794;exitY=1.008;exitDx=0;exitDy=0;exitPerimeter=0;" edge="1" parent="1" source="ceyopC86vSADz4O9Ktu8-21" target="ceyopC86vSADz4O9Ktu8-1">
          <mxGeometry x="-0.0732" width="160" relative="1" as="geometry">
            <mxPoint x="1370" y="4094" as="sourcePoint" />
            <mxPoint x="1530" y="4094" as="targetPoint" />
            <Array as="points">
              <mxPoint x="1430" y="4174" />
              <mxPoint x="1460" y="4184" />
              <mxPoint x="1530" y="4224" />
            </Array>
            <mxPoint as="offset" />
          </mxGeometry>
        </mxCell>
        <mxCell id="ceyopC86vSADz4O9Ktu8-75" value="1" style="endArrow=open;html=1;endSize=12;startArrow=diamondThin;startSize=14;startFill=0;edgeStyle=orthogonalEdgeStyle;align=left;verticalAlign=bottom;rounded=0;fontSize=12;curved=1;entryX=0.5;entryY=0;entryDx=0;entryDy=0;" edge="1" parent="1" source="1-GLfwU_gdSAN0xT_Nue-4" target="ceyopC86vSADz4O9Ktu8-35">
          <mxGeometry x="-1" y="3" relative="1" as="geometry">
            <mxPoint x="-460" y="2420" as="sourcePoint" />
            <mxPoint x="-310" y="2290" as="targetPoint" />
            <Array as="points">
              <mxPoint x="-450" y="2350" />
              <mxPoint x="-380" y="2350" />
              <mxPoint x="-380" y="2450" />
              <mxPoint x="-420" y="2450" />
            </Array>
          </mxGeometry>
        </mxCell>
        <mxCell id="ceyopC86vSADz4O9Ktu8-76" style="edgeStyle=none;curved=1;rounded=0;orthogonalLoop=1;jettySize=auto;html=1;entryX=0.5;entryY=0;entryDx=0;entryDy=0;fontSize=12;startSize=8;endSize=8;" edge="1" parent="1" source="ceyopC86vSADz4O9Ktu8-38" target="ceyopC86vSADz4O9Ktu8-53">
          <mxGeometry relative="1" as="geometry">
            <Array as="points">
              <mxPoint x="-230" y="2920" />
            </Array>
          </mxGeometry>
        </mxCell>
        <mxCell id="ceyopC86vSADz4O9Ktu8-82" value="Extends" style="endArrow=block;endSize=16;endFill=0;html=1;rounded=0;fontSize=12;curved=1;fillColor=#d80073;strokeColor=#A50040;" edge="1" parent="1">
          <mxGeometry x="-0.0077" width="160" relative="1" as="geometry">
            <mxPoint x="-1605" y="4030" as="sourcePoint" />
            <mxPoint x="-1445" y="4050" as="targetPoint" />
            <mxPoint as="offset" />
          </mxGeometry>
        </mxCell>
        <mxCell id="ceyopC86vSADz4O9Ktu8-83" value="Extends" style="endArrow=block;endSize=16;endFill=0;html=1;rounded=0;fontSize=12;curved=1;entryX=0.5;entryY=0;entryDx=0;entryDy=0;fillColor=#a20025;strokeColor=#6F0000;" edge="1" parent="1" target="6XG5QplGx-Yt1XKf_cvf-17">
          <mxGeometry width="160" relative="1" as="geometry">
            <mxPoint x="-1705" y="4150" as="sourcePoint" />
            <mxPoint x="-1545" y="4150" as="targetPoint" />
          </mxGeometry>
        </mxCell>
        <mxCell id="ceyopC86vSADz4O9Ktu8-84" value="Extends" style="endArrow=block;endSize=16;endFill=0;html=1;rounded=0;fontSize=12;curved=1;entryX=0.382;entryY=0.018;entryDx=0;entryDy=0;entryPerimeter=0;" edge="1" parent="1" target="6XG5QplGx-Yt1XKf_cvf-37">
          <mxGeometry width="160" relative="1" as="geometry">
            <mxPoint x="-1895" y="4150" as="sourcePoint" />
            <mxPoint x="-1735" y="4150" as="targetPoint" />
          </mxGeometry>
        </mxCell>
        <mxCell id="ceyopC86vSADz4O9Ktu8-91" style="edgeStyle=none;curved=1;rounded=0;orthogonalLoop=1;jettySize=auto;html=1;entryX=0.5;entryY=0;entryDx=0;entryDy=0;fontSize=12;startSize=8;endSize=8;fillColor=#6a00ff;strokeColor=#3700CC;" edge="1" parent="1" source="KkSQwusm3BORoXdPYHce-5" target="6XG5QplGx-Yt1XKf_cvf-1">
          <mxGeometry relative="1" as="geometry" />
        </mxCell>
        <mxCell id="ceyopC86vSADz4O9Ktu8-93" style="edgeStyle=none;curved=1;rounded=0;orthogonalLoop=1;jettySize=auto;html=1;exitX=1;exitY=0.5;exitDx=0;exitDy=0;entryX=0.5;entryY=0;entryDx=0;entryDy=0;fontSize=12;startSize=8;endSize=8;" edge="1" parent="1" source="ceyopC86vSADz4O9Ktu8-36" target="ceyopC86vSADz4O9Ktu8-18">
          <mxGeometry relative="1" as="geometry">
            <Array as="points">
              <mxPoint x="750" y="2850" />
            </Array>
          </mxGeometry>
        </mxCell>
        <mxCell id="ceyopC86vSADz4O9Ktu8-94" style="edgeStyle=none;curved=1;rounded=0;orthogonalLoop=1;jettySize=auto;html=1;entryX=1.01;entryY=0.583;entryDx=0;entryDy=0;entryPerimeter=0;fontSize=12;startSize=8;endSize=8;fillColor=#0050ef;strokeColor=#001DBC;" edge="1" parent="1" source="ceyopC86vSADz4O9Ktu8-34" target="6XG5QplGx-Yt1XKf_cvf-24">
          <mxGeometry relative="1" as="geometry">
            <Array as="points">
              <mxPoint x="-730" y="3950" />
              <mxPoint x="-1030" y="3540" />
            </Array>
          </mxGeometry>
        </mxCell>
        <mxCell id="ceyopC86vSADz4O9Ktu8-95" style="edgeStyle=none;curved=1;rounded=0;orthogonalLoop=1;jettySize=auto;html=1;entryX=0.5;entryY=0;entryDx=0;entryDy=0;fontSize=12;startSize=8;endSize=8;fillColor=#60a917;strokeColor=#2D7600;" edge="1" parent="1" source="ceyopC86vSADz4O9Ktu8-60" target="6XG5QplGx-Yt1XKf_cvf-45">
          <mxGeometry relative="1" as="geometry">
            <Array as="points">
              <mxPoint x="-2530" y="2870" />
            </Array>
          </mxGeometry>
        </mxCell>
        <mxCell id="ceyopC86vSADz4O9Ktu8-96" style="edgeStyle=none;curved=1;rounded=0;orthogonalLoop=1;jettySize=auto;html=1;fontSize=12;startSize=8;endSize=8;entryX=1.013;entryY=0.293;entryDx=0;entryDy=0;entryPerimeter=0;fillColor=#d80073;strokeColor=#A50040;" edge="1" parent="1" source="ceyopC86vSADz4O9Ktu8-42" target="6XG5QplGx-Yt1XKf_cvf-36">
          <mxGeometry relative="1" as="geometry">
            <mxPoint x="-1060" y="4101.666666666667" as="targetPoint" />
            <Array as="points">
              <mxPoint x="-1790" y="3230" />
              <mxPoint x="-660" y="3820" />
            </Array>
          </mxGeometry>
        </mxCell>
        <mxCell id="ceyopC86vSADz4O9Ktu8-97" style="edgeStyle=none;curved=1;rounded=0;orthogonalLoop=1;jettySize=auto;html=1;exitX=0;exitY=0.5;exitDx=0;exitDy=0;entryX=0.367;entryY=1.028;entryDx=0;entryDy=0;entryPerimeter=0;fontSize=12;startSize=8;endSize=8;fillColor=#a20025;strokeColor=#6F0000;" edge="1" parent="1" source="6XG5QplGx-Yt1XKf_cvf-16" target="6XG5QplGx-Yt1XKf_cvf-18">
          <mxGeometry relative="1" as="geometry">
            <Array as="points">
              <mxPoint x="-4240" y="5120" />
            </Array>
          </mxGeometry>
        </mxCell>
        <mxCell id="ceyopC86vSADz4O9Ktu8-102" value="Extends" style="endArrow=block;endSize=16;endFill=0;html=1;rounded=0;fontSize=12;curved=1;entryX=0.5;entryY=0;entryDx=0;entryDy=0;fillColor=#fa6800;strokeColor=#C73500;" edge="1" parent="1" target="1-GLfwU_gdSAN0xT_Nue-9">
          <mxGeometry width="160" relative="1" as="geometry">
            <mxPoint x="-3230" y="4340" as="sourcePoint" />
            <mxPoint x="-3070" y="4340" as="targetPoint" />
          </mxGeometry>
        </mxCell>
        <mxCell id="ceyopC86vSADz4O9Ktu8-103" style="edgeStyle=none;curved=1;rounded=0;orthogonalLoop=1;jettySize=auto;html=1;exitX=1;exitY=0.5;exitDx=0;exitDy=0;entryX=0;entryY=0.5;entryDx=0;entryDy=0;fontSize=12;startSize=8;endSize=8;fillColor=#fa6800;strokeColor=#C73500;" edge="1" parent="1" source="1-GLfwU_gdSAN0xT_Nue-6" target="6XG5QplGx-Yt1XKf_cvf-42">
          <mxGeometry relative="1" as="geometry" />
        </mxCell>
        <mxCell id="ceyopC86vSADz4O9Ktu8-104" style="edgeStyle=none;curved=1;rounded=0;orthogonalLoop=1;jettySize=auto;html=1;fontSize=12;startSize=8;endSize=8;" edge="1" parent="1" source="KkSQwusm3BORoXdPYHce-5" target="6XG5QplGx-Yt1XKf_cvf-14">
          <mxGeometry relative="1" as="geometry" />
        </mxCell>
        <mxCell id="ceyopC86vSADz4O9Ktu8-98" value="" style="endArrow=block;dashed=1;endFill=0;endSize=12;html=1;rounded=0;fontSize=12;curved=1;entryX=0.623;entryY=1.017;entryDx=0;entryDy=0;entryPerimeter=0;exitX=0.448;exitY=0.006;exitDx=0;exitDy=0;exitPerimeter=0;" edge="1" parent="1" source="ceyopC86vSADz4O9Ktu8-6" target="ceyopC86vSADz4O9Ktu8-26">
          <mxGeometry width="160" relative="1" as="geometry">
            <mxPoint x="1610" y="4250" as="sourcePoint" />
            <mxPoint x="1520" y="3870" as="targetPoint" />
          </mxGeometry>
        </mxCell>
        <mxCell id="ceyopC86vSADz4O9Ktu8-107" style="edgeStyle=none;curved=1;rounded=0;orthogonalLoop=1;jettySize=auto;html=1;fontSize=12;startSize=8;endSize=8;" edge="1" parent="1" source="ceyopC86vSADz4O9Ktu8-2" target="ceyopC86vSADz4O9Ktu8-7">
          <mxGeometry relative="1" as="geometry" />
        </mxCell>
        <mxCell id="ceyopC86vSADz4O9Ktu8-108" value="1" style="endArrow=open;html=1;endSize=12;startArrow=diamondThin;startSize=14;startFill=1;edgeStyle=orthogonalEdgeStyle;align=left;verticalAlign=bottom;rounded=0;fontSize=12;curved=1;entryX=1.008;entryY=0.592;entryDx=0;entryDy=0;entryPerimeter=0;" edge="1" parent="1" target="ceyopC86vSADz4O9Ktu8-11">
          <mxGeometry x="-1" y="3" relative="1" as="geometry">
            <mxPoint x="880" y="3940" as="sourcePoint" />
            <mxPoint x="1040" y="3940" as="targetPoint" />
            <Array as="points">
              <mxPoint x="880" y="4090" />
              <mxPoint x="134" y="4090" />
            </Array>
          </mxGeometry>
        </mxCell>
        <mxCell id="ceyopC86vSADz4O9Ktu8-109" style="edgeStyle=none;curved=1;rounded=0;orthogonalLoop=1;jettySize=auto;html=1;fontSize=12;startSize=8;endSize=8;" edge="1" parent="1" source="1-GLfwU_gdSAN0xT_Nue-4" target="1-GLfwU_gdSAN0xT_Nue-5">
          <mxGeometry relative="1" as="geometry">
            <Array as="points">
              <mxPoint x="-4690" y="1130" />
            </Array>
          </mxGeometry>
        </mxCell>
        <mxCell id="ceyopC86vSADz4O9Ktu8-110" style="edgeStyle=none;curved=1;rounded=0;orthogonalLoop=1;jettySize=auto;html=1;fontSize=12;startSize=8;endSize=8;" edge="1" parent="1" source="6XG5QplGx-Yt1XKf_cvf-65">
          <mxGeometry relative="1" as="geometry">
            <mxPoint x="670" y="4810" as="targetPoint" />
            <Array as="points">
              <mxPoint x="240" y="4740" />
              <mxPoint x="700" y="4820" />
            </Array>
          </mxGeometry>
        </mxCell>
        <mxCell id="ceyopC86vSADz4O9Ktu8-111" style="edgeStyle=none;curved=1;rounded=0;orthogonalLoop=1;jettySize=auto;html=1;entryX=0.517;entryY=0.017;entryDx=0;entryDy=0;entryPerimeter=0;fontSize=12;startSize=8;endSize=8;" edge="1" parent="1" source="ceyopC86vSADz4O9Ktu8-17" target="ceyopC86vSADz4O9Ktu8-27">
          <mxGeometry relative="1" as="geometry" />
        </mxCell>
      </root>
    </mxGraphModel>
  </diagram>
</mxfile>
